<?xml version="1.0" standalone="no"?>
<!DOCTYPE svg PUBLIC "-//W3C//DTD SVG 1.1//EN" "http://www.w3.org/Graphics/SVG/1.1/DTD/svg11.dtd" >
<svg xmlns="http://www.w3.org/2000/svg">
<metadata>
Created by FontForge 20120731 at Wed Jun 15 15:04:53 2016
 By admin
</metadata>
<defs>
<font id="iconfont" horiz-adv-x="1024" >
  <font-face 
    font-family="iconfont"
    font-weight="500"
    font-stretch="normal"
    units-per-em="1024"
    panose-1="2 0 6 3 0 0 0 0 0 0"
    ascent="896"
    descent="-128"
    x-height="792"
    bbox="-8 -334 1056.53 935"
    underline-thickness="50"
    underline-position="-100"
    unicode-range="U+0078-E677"
  />
<missing-glyph horiz-adv-x="374" 
d="M34 0v682h272v-682h-272zM68 34h204v614h-204v-614z" />
    <glyph glyph-name=".notdef" horiz-adv-x="374" 
d="M34 0v682h272v-682h-272zM68 34h204v614h-204v-614z" />
    <glyph glyph-name=".null" horiz-adv-x="0" 
 />
    <glyph glyph-name="nonmarkingreturn" horiz-adv-x="341" 
 />
    <glyph glyph-name="x" unicode="x" horiz-adv-x="1001" 
d="M281 543q-27 -1 -53 -1h-83q-18 0 -36.5 -6t-32.5 -18.5t-23 -32t-9 -45.5v-76h912v41q0 16 -0.5 30t-0.5 18q0 13 -5 29t-17 29.5t-31.5 22.5t-49.5 9h-133v-97h-438v97zM955 310v-52q0 -23 0.5 -52t0.5 -58t-10.5 -47.5t-26 -30t-33 -16t-31.5 -4.5q-14 -1 -29.5 -0.5
t-29.5 0.5h-32l-45 128h-439l-44 -128h-29h-34q-20 0 -45 1q-25 0 -41 9.5t-25.5 23t-13.5 29.5t-4 30v167h911zM163 247q-12 0 -21 -8.5t-9 -21.5t9 -21.5t21 -8.5q13 0 22 8.5t9 21.5t-9 21.5t-22 8.5zM316 123q-8 -26 -14 -48q-5 -19 -10.5 -37t-7.5 -25t-3 -15t1 -14.5
t9.5 -10.5t21.5 -4h37h67h81h80h64h36q23 0 34 12t2 38q-5 13 -9.5 30.5t-9.5 34.5q-5 19 -11 39h-368zM336 498v228q0 11 2.5 23t10 21.5t20.5 15.5t34 6h188q31 0 51.5 -14.5t20.5 -52.5v-227h-327z" />
    <glyph glyph-name="uniE600" unicode="&#xe600;" 
d="M530 -35h-291q-32 0 -54.5 22.5t-22.5 54.5v565q0 32 22.5 54.5t54.5 22.5h477q32 0 54.5 -22.5t22.5 -54.5v-349q0 -5 -3.5 -8.5t-9 -3.5t-9 3.5t-3.5 8.5v349q0 22 -15.5 37t-36.5 15h-477q-22 0 -37.5 -15t-15.5 -37v-565q0 -22 15.5 -37t37.5 -15h291q6 0 9.5 -4
t3.5 -9t-3.5 -8.5t-9.5 -3.5zM718.5 -84q-59.5 0 -101.5 42t-42 101.5t42 102t101.5 42.5t101.5 -42.5t42 -102t-42 -101.5t-101.5 -42zM718.5 179q-49.5 0 -84 -35t-34.5 -84t34.5 -84t84 -35t84.5 35t35 84t-35 84t-84.5 35zM719 48q-5 0 -9 3.5t-4 8.5v74q0 5 4 8.5
t9 3.5t8.5 -3.5t3.5 -8.5v-74q0 -5 -3.5 -8.5t-8.5 -3.5zM778 48h-60q-5 0 -8.5 3.5t-3.5 8.5t3.5 8.5t8.5 3.5h60q5 0 9 -3.5t4 -8.5t-4 -8.5t-9 -3.5zM462 350q-4 0 -8 3q-9 8 -2 17l125 163q8 10 17.5 2.5t2.5 -17.5l-125 -163q-4 -5 -10 -5zM462 110q-5 0 -8.5 4t-3.5 9
v236l-123 159q-7 10 2.5 17.5t17.5 -2.5l125 -163q2 -3 2 -7v-240q0 -5 -3.5 -9t-8.5 -4zM590 347h-256q-5 0 -9 4t-4 9t4 8.5t9 3.5h256q5 0 9 -3.5t4 -8.5t-4 -9t-9 -4zM610 255h-296q-5 0 -9 3.5t-4 8.5t4 8.5t9 3.5h296q5 0 9 -3.5t4 -8.5t-4 -8.5t-9 -3.5z" />
    <glyph glyph-name="uniE601" unicode="&#xe601;" horiz-adv-x="1058" 
d="M967 450q37 -52 56 -111t26.5 -115t7 -105t-0.5 -80q0 -6 -1 -14.5t-3.5 -17t-6 -14.5t-9.5 -6h-41q0 34 -10.5 58t-27.5 39t-40.5 22t-49.5 7t-48 -10t-38.5 -27t-26 -39.5t-9.5 -47.5h-18q-18 0 -30.5 13t-12.5 31v1v479q0 11 7 25.5t18 15.5q33 3 69 -2.5t71 -18.5
t66 -33.5t52 -49.5zM951 235q12 0 20.5 0.5t8.5 12.5q0 2 -0.5 3t-0.5 3q-10 49 -23 94.5t-44 77.5q-20 19 -43 27.5t-43.5 11t-34.5 1.5t-15 -1q-13 0 -22 -9.5t-9 -20.5v-91q0 -40 1 -89v-1q0 -5 7 -12t14 -7h184zM620 676l2 -649q0 -17 -11.5 -28t-27.5 -11h-272
q0 59 -30 93t-94 34q-60 0 -92.5 -31.5t-32.5 -95.5h-23q-17 0 -28 10t-11 29v518q0 24 9 47t25.5 42t38.5 30.5t48 11.5h499zM872 50q26 0 45 -19t19 -45q0 -27 -19 -45.5t-45 -18.5q-27 0 -45.5 18.5t-18.5 45.5q0 26 18.5 45t45.5 19zM186 51q27 0 45.5 -19t18.5 -46
q0 -26 -18.5 -44.5t-45.5 -18.5t-45 18.5t-18 44.5q0 27 18 46t45 19zM186 51z" />
    <glyph glyph-name="uniE602" unicode="&#xe602;" 
d="M529 74l-441 485h883z" />
    <glyph glyph-name="uniE603" unicode="&#xe603;" 
d="M858 765l-241 -409h190v-91h-221v-124h221v-92h-221v-181h-113v181h-229v92h229v124h-229v91h195l-238 409h128q167 -305 203 -387h2q12 34 67 136l136 251h121z" />
    <glyph glyph-name="uniE604" unicode="&#xe604;" 
d="M274 315l447 -444l64 64l-384 380l381 383l-64 64z" />
    <glyph glyph-name="uniE605" unicode="&#xe605;" 
d="M511 35l435 439l-63 62l-373 -376l-375 373l-62 -63zM73 470z" />
    <glyph glyph-name="uniE606" unicode="&#xe606;" 
d="M518 546l-434 -439l62 -62l373 377l375 -374l62 63z" />
    <glyph glyph-name="uniE607" unicode="&#xe607;" 
d="M71 601h134v-134h-134v134zM71 361h134v-134h-134v134zM71 121h134v-134h-134v134zM321 601h623v-134h-623v134zM321 361h623v-134h-623v134zM321 121h623v-134h-623v134z" />
    <glyph glyph-name="uniE608" unicode="&#xe608;" 
d="M154 738l796 -796l-80 -80l-796 796zM870 738l80 -80l-796 -796l-80 80z" />
    <glyph glyph-name="uniE609" unicode="&#xe609;" 
d="M341 762l-64 -64l381 -383l-384 -380l63 -64l448 444z" />
    <glyph glyph-name="uniE60A" unicode="&#xe60a;" 
d="M764 308l-477 437v-874z" />
    <glyph glyph-name="uniE60B" unicode="&#xe60b;" 
d="M891 590q-11 12 -27 14q-35 0 -78.5 21.5t-93.5 54.5t-70 43q-65 34 -87 38l-6 1l-6 -1q-21 -4 -86 -38q-20 -10 -70.5 -43t-94 -54.5t-77.5 -21.5q-16 -2 -27 -14t-10 -28q13 -256 101.5 -423.5t251.5 -262.5q9 -5 18.5 -5t17.5 5q164 95 252.5 262.5t100.5 423.5
q1 16 -9 28zM812 512q-9 -204 -76.5 -337t-192.5 -209q-7 -3 -13.5 -3t-13.5 3q-125 76 -192.5 209t-77.5 337q-1 12 8 22q8 10 20 10q26 1 59.5 18t71.5 43.5t54 34.5q49 26 65 29l5 1l5 -1q16 -3 66 -29q15 -8 53.5 -34.5t71.5 -43.5t60 -18q12 0 19 -10q9 -10 8 -22z
M365 460q-23 0 -25 25q2 24 25 25h325q22 -1 25 -25q-3 -25 -25 -25h-120v-90h116q22 -2 26 -27q-4 -25 -26 -25h-116v-110h128q24 -2 27 -24q0 -25 -23 -27h-345q-22 2 -24 27q2 22 24 24h34v181q0 25 25 28q25 -3 27 -28v-181h73v252h-151z" />
    <glyph glyph-name="uniE60C" unicode="&#xe60c;" 
d="M529 762q-90 0 -172.5 -35.5t-142 -95t-95 -142t-35.5 -173t35.5 -173t95 -142t142 -95t173 -35.5t173 35.5t142 95t95 142t35.5 173t-35.5 173t-95 142t-142 95t-173.5 35.5zM778 120q11 -11 11 -26.5t-11 -25.5q-11 -11 -26 -11t-26 11l-197 196l-196 -196
q-11 -11 -26.5 -11t-26.5 11q-10 10 -10 25.5t10 26.5l197 196l-197 197q-10 11 -10 26t10.5 26t26 11t26.5 -11l196 -196l197 196q11 11 26 11t26 -11t11 -26t-11 -26l-196 -197z" />
    <glyph glyph-name="uniE60D" unicode="&#xe60d;" 
d="M818.5 605.5q-84.5 84.5 -196 115t-223.5 1t-196.5 -114t-115 -197t-1 -225.5t114 -197.5t197.5 -114t225.5 1t197 115t114 196.5t-1 223.5t-115 196zM246 33q-72 72 -97 168.5t1 193t98 168.5t167.5 97t190.5 -0.5t167.5 -98t98.5 -167.5t0.5 -190.5t-97.5 -167.5
t-168 -98.5t-192.5 -1.5t-168.5 97zM716 142l-155 155l155 154q11 11 11 26t-11 25.5t-26 10.5t-25 -10l-155 -155l-155 155q-11 11 -26 11t-25.5 -11t-10.5 -26t11 -26l154 -154l-154 -155q-11 -11 -11 -26t10.5 -25.5t26 -10.5t25.5 10l155 155l154 -155q11 -10 26 -10
t26 10.5t11 25.5t-11 26z" />
    <glyph glyph-name="uniE60E" unicode="&#xe60e;" 
d="M509 732q-89 0 -170 -34.5t-139 -93t-93 -139t-35 -169.5t35 -170t93 -139t139 -93t170 -35t169.5 35t139 93t93 139t34.5 170t-34.5 169.5t-93 139t-139 93t-169.5 34.5zM781 403l-306 -294q-6 -6 -13 -10q-14 -10 -32 -9t-31 14l-131 131q-15 15 -15 35t14.5 34.5
t35 14.5t34.5 -14l98 -99l276 266q15 15 35 15t34.5 -14.5t14.5 -35t-14 -34.5z" />
    <glyph glyph-name="uniE60F" unicode="&#xe60f;" 
d="M508 733q-89 0 -169.5 -34.5t-139 -93t-93 -139.5t-34.5 -170t34.5 -169.5t93 -139t139 -93t169.5 -34.5t170 34.5t139.5 93t93 139t34.5 169.5t-34.5 170t-93 139.5t-139.5 93t-170 34.5zM508 -120q-113 0 -209 55.5t-151.5 151.5t-55.5 209t55.5 209t151.5 152t209 56
t209 -56t152 -152t56 -209t-56 -209t-152 -151.5t-209 -55.5zM277 158h75v249h40v-249h119v316h-213v36h423v-36h-170v-122h154v-36h-154v-158h189v-36h-463v36z" />
    <glyph glyph-name="uniE610" unicode="&#xe610;" 
d="M445.5 263.5q-18.5 29.5 -53 37.5t-64 -11t-37.5 -53.5t11 -64t53 -37.5t64 11t37.5 53.5t-11 64zM342 256q-11 -7 -16 -17q-4 -8 -4 -18q0 -14 4 -22q4 -9 -4.5 -13t-13.5 5q-6 15 -6 30t6 27q8 15 24 25q9 5 14 -3.5t-4 -13.5zM441 203q-6 -28 -30 -43q-17 -11 -37 -11
h-7q0 50 1 54q4 55 26 81q24 -7 38 -29q15 -24 9 -52zM908 751h-792q-23 0 -39 -16t-16 -39v-792q0 -23 16 -39t39 -16h792q23 0 39 16t16 39v792q0 23 -16 39t-39 16zM467 471q1 14 14 17q3 43 27 71t61 28t61.5 -28.5t26.5 -70.5q11 -4 12 -17q1 -11 -4 -23t-14 -16
q-10 -37 -30.5 -61.5t-51 -24.5t-51.5 24t-30 61q-10 3 -16.5 15.5t-4.5 24.5zM501.5 16.5q-6.5 -4.5 -14.5 -2.5t-13 9l-55 85q-35 -14 -71 -6q-49 11 -75 52.5t-15 89.5t52.5 74.5t89.5 15.5t74.5 -52.5t15.5 -89.5q-9 -37 -37 -63l55 -85q4 -7 2 -15t-8.5 -12.5zM696 100
q-1 47 -1 81q0 17 -8 31v-114q-55 -4 -119 -4q-37 0 -74 1l-21 32q24 27 32 61q12 55 -17 102q-10 15 -24 28q18 7 39 13q1 0 1 1h1h1q2 -21 32 -151l17 102l-10 25l17 16h12l17 -16l-11 -25l18 -102q30 130 32 151h1l1 -1q73 -22 103 -39q28 -29 33 -89q0 -5 1 -96
q-23 -3 -73 -7z" />
    <glyph glyph-name="uniE611" unicode="&#xe611;" 
d="M379 294h-108q-6 -9 -15 -14q-6 -4 -14 -6q0 -74 22 -116q21 -38 61 -51q40 13 60 51q22 42 22 116q-8 2 -14 6q-8 5 -14 14zM264 274q0 6 6 6t6 -6t-6 -6t-6 6zM325.5 113q-5.5 0 -5.5 6t5.5 6t5.5 -6t-5.5 -6zM367 170q-14 -29 -42 -39q-29 10 -43 39q-16 32 -15 87
q5 2 10 5q6 4 9 11h77q4 -7 10 -11q4 -3 10 -5q0 -55 -16 -87zM380.5 268q-5.5 0 -5.5 6t5.5 6t5.5 -6t-5.5 -6zM752 307h-188v-66h188v66zM908 751h-792q-23 0 -39 -16t-16 -39v-792q0 -23 16 -39t39 -16h792q23 0 39 16t16 39v792q0 23 -16 39t-39 16zM325 476
q0 17 10.5 28t26.5 11h396q15 0 26 -11t11 -28v-38h-470v38zM404 148q-25 -47 -76 -62l-3 -1l-3 1q-51 15 -76 62q-26 50 -25 135l1 11h10q8 0 13 4q6 3 10 11l3 6h134l3 -6q3 -8 9 -11q6 -4 14 -4h10v-11q2 -85 -24 -135zM795 238q0 -17 -11 -28.5t-26 -11.5h-323
q7 38 6 86v22l-23 1q-4 0 -6.5 1.5t-5.5 6.5l-6 13h-75v88h470v-178zM281 246q-2 -51 27 -94q-11 54 -15 108q-2 -3 -6.5 -8t-5.5 -6z" />
    <glyph glyph-name="uniE612" unicode="&#xe612;" 
d="M651 470.5q-71 57.5 -161.5 48.5t-148 -80t-48.5 -161.5t80 -148t161.5 -48.5t148 80t48.5 161.5t-80 148zM591 316v-27h-56v-25h56v-27h-56v-61h-50v61h-55v27h55v25h-55v27h42l-57 108h57l25 -61q3 -7 15 -42h1q0 1 5.5 17.5t9.5 24.5l25 61h56l-60 -108h42zM908 751
h-792q-23 0 -39 -16t-16 -39v-792q0 -23 16 -39t39 -16h792q23 0 39 16t16 39v792q0 23 -16 39t-39 16zM795 251l-17 -60l-41 -2q-1 -1 -3 -5l-3 -6l24 -36l-39 -49l-40 17q-1 -1 -3.5 -2t-3.5 -2l8 -41l-55 -30l-30 29l-12 -4l-8 -40l-62 -7l-17 38q-5 1 -7 1l-23 -35
l-60 18l-2 41q-1 0 -5 2l-6 3l-36 -24l-48 39l16 40q-1 1 -2 3.5t-2 3.5l-40 -8l-31 55l29 30q-2 6 -3 11l-41 9l-7 62l39 17q0 4 1 7l-36 23l18 60l42 1q4 9 5 10l-24 36l40 49l40 -16q1 0 2 1l3 3l-8 41l54 31l31 -30q6 2 11 4l9 41l62 7l17 -39q5 -1 6 -1l24 36l60 -17
l1 -42q2 -1 5.5 -2.5t5.5 -2.5l37 24l48 -39l-16 -41q1 0 2 -2.5t1 -3.5l41 8l31 -55l-29 -30q2 -5 4 -11l40 -9l7 -62l-38 -16q-1 -6 -1 -8z" />
    <glyph glyph-name="uniE613" unicode="&#xe613;" 
d="M537 279q-3 0 -8 -1q-2 -1 -5.5 -1.5t-4.5 -0.5q-2 -1 -3 -2q-2 -13 -9 -23l1 -1h1q4 -5 1 -12l40 -25q5 -3 4 -9v-17q0 -11 -10 -8l-15 4q-7 2 -9 6l-18 42q-7 -1 -11 4v1t-1 1q-10 -5 -24 -5q-2 -1 -2 -2q-9 -17 -7.5 -35.5t18.5 -40.5q5 -7 12 -12t17 -7.5t19 5.5
l37 30l36 31q9 7 9.5 17.5t-3.5 18.5t-10 14q-27 30 -55 28zM471.5 244q17.5 3 27.5 17.5t7 31.5q-2 15 -14 25t-27 10h-8q-12 -2 -22 -12q-17 -16 -13 -38q3 -17 17.5 -27t32 -7zM603 313l12 -15l51 44l-12 15zM908 751h-792q-23 0 -39 -16t-16 -39v-792q0 -23 16 -39
t39 -16h792q23 0 39 16t16 39v792q0 23 -16 39t-39 16zM424 78q-12 -9 -27 -7t-25 14l-137 165q-10 13 -9.5 28t12.5 24l264 221q5 5 13 6q4 2 10 2q18 -1 29 -15l2 -2l-254 -211q-11 -10 -12 -25t9 -28l70 -83l1 -2q3 -4 7 -9q1 -2 7 -8q1 -1 2 -1l48 -60zM786 297
l-264 -220q-12 -9 -27 -7t-25 14l-137 165q-10 12 -9.5 27.5t12.5 24.5l264 220q6 5 13 7q4 1 10 1q18 -1 29 -15l137 -164q11 -12 10 -28t-13 -25zM572 351l13 -16l82 69l-13 16z" />
    <glyph glyph-name="uniE614" unicode="&#xe614;" 
d="M-8 910v-1244h1040v1244h-1040zM512 593q64 0 109.5 -45.5t45.5 -110t-45.5 -110t-109.5 -45.5t-109.5 45.5t-45.5 110t45.5 110t109.5 45.5zM793 -17h-562v50q0 82 58 140.5t140 58.5h166q82 0 140 -58.5t58 -140.5v-50z" />
    <glyph glyph-name="uniE615" unicode="&#xe615;" 
d="M524 600q-53 0 -91 -37.5t-38 -90.5v-109h258v109q0 53 -38 90.5t-91 37.5zM586 225q0 26 -18 44t-43.5 18t-44 -18t-18.5 -44q0 -18 10.5 -33.5t26.5 -22.5v-4l-26 -119h103l-27 123q17 7 27 22.5t10 33.5zM4 935v-1245h1041v1245h-1041zM747 -30h-445v393h39v109
q0 75 54 129t129.5 54t129.5 -54t54 -129v-109h39v-393z" />
    <glyph glyph-name="uniE616" unicode="&#xe616;" 
d="M512 751q-92 0 -175.5 -36t-143.5 -96t-96 -143.5t-36 -175.5t36 -175.5t96 -143.5t143.5 -96t175.5 -36t175.5 36t143.5 96t96 143.5t36 175.5t-36 175.5t-96 143.5t-143.5 96t-175.5 36zM428 447q2 50 20 76.5t64.5 26.5t64.5 -26.5t20 -76.5q5 0 7.5 -1.5t4 -7
t0.5 -17.5t-3.5 -17t-5.5 -5.5t-8 -0.5q-11 -38 -32 -61.5t-47.5 -23.5t-47.5 23.5t-33 62.5q-4 -1 -7.5 -1t-6 5.5t-3.5 17.5t1 18t4 7t8 1zM557 199l-44 -60h-2l-44 60l33 97q6 -1 12.5 -1t11.5 1zM707 50h-390v179q0 62 89 94q41 -163 101 -197h10q60 34 101 197
q89 -32 89 -94v-179z" />
    <glyph glyph-name="uniE617" unicode="&#xe617;" 
d="M367 300q0 -60 42.5 -102.5t102.5 -42.5t102.5 42.5t42.5 102.5t-42.5 102.5t-102.5 42.5t-102.5 -42.5t-42.5 -102.5zM578 344h-33q0 9 -9 16.5t-24 7.5t-24 -7.5t-9 -16.5q0 -17 38 -28q61 -17 61 -56q0 -42 -44 -50v-19h-44v19q-44 8 -44 46h33q0 -24 33 -24
q15 0 24 7.5t9 16.5q0 11 -9 16.5t-29 11.5q-61 17 -61 56q0 42 44 50v19h44v-20q44 -10 44 -45zM512 751q-92 0 -175.5 -36t-143.5 -96t-96 -143.5t-36 -175.5t36 -175.5t96 -143.5t143.5 -96t175.5 -36t175.5 36t143.5 96t96 143.5t36 175.5t-36 175.5t-96 143.5
t-143.5 96t-175.5 36zM752 344l-49 49l-29 -28q13 -32 13 -65q0 -72 -51.5 -123.5t-123.5 -51.5q-33 0 -65 13l-28 -29l49 -49h-196v196l49 -49l29 28q-13 32 -13 65q0 72 51.5 123.5t123.5 51.5q33 0 65 -13l28 29l-49 49h196v-196z" />
    <glyph glyph-name="uniE618" unicode="&#xe618;" 
d="M502 167h20q0 8 6.5 14t14.5 6v146q-8 0 -14.5 6.5t-6.5 14.5h-20q0 -8 -6.5 -14.5t-14.5 -6.5v-146q8 0 14.5 -6t6.5 -14zM397 167h21q0 8 6 14t15 6v146q-9 0 -15 6.5t-6 14.5h-21q0 -8 -6 -14.5t-15 -6.5v-146q9 0 15 -6t6 -14zM606 167h21q0 8 6 14t15 6v146
q-9 0 -15 6.5t-6 14.5h-21q0 -8 -6 -14.5t-15 -6.5v-146q9 0 15 -6t6 -14zM512 751q-92 0 -175.5 -36t-143.5 -96t-96 -143.5t-36 -175.5t36 -175.5t96 -143.5t143.5 -96t175.5 -36t175.5 36t143.5 96t96 143.5t36 175.5t-36 175.5t-96 143.5t-143.5 96t-175.5 36zM762 83
h-500v31h500v-31zM314 354h-21v32h438v-32h-21q0 -8 -6 -14.5t-15 -6.5v-146q9 0 15 -6t6 -14h21v-32h-438v32h21q0 8 6 14t15 6v146q-9 0 -15 6.5t-6 14.5zM762 406h-500v27l250 151l250 -151v-27zM330 438h364l-182 109z" />
    <glyph glyph-name="uniE619" unicode="&#xe619;" 
d="M350.5 326q-10.5 0 -18 -7.5t-7.5 -18.5t7.5 -18.5t18 -7.5t18.5 7.5t8 18.5t-8 18.5t-18.5 7.5zM512 751q-92 0 -175.5 -36t-143.5 -96t-96 -143.5t-36 -175.5t36 -175.5t96 -143.5t143.5 -96t175.5 -36t175.5 36t143.5 96t96 143.5t36 175.5t-36 175.5t-96 143.5
t-143.5 96t-175.5 36zM546.5 577q33.5 0 57 -24t23.5 -57.5t-23.5 -57t-57 -23.5t-57 23.5t-23.5 57t23.5 57.5t57 24zM766 265h-2q2 -12 2 -23q0 -32 -9.5 -57t-23.5 -40t-27.5 -27t-23 -24t-9.5 -24v-24q0 -8 -7 -15.5t-16 -7.5h-34q-9 0 -16 7.5t-7 15.5v24h-128v-24
q0 -8 -7 -15.5t-16 -7.5h-34q-9 0 -16 7.5t-7 15.5v47q-3 0 -7.5 1t-17.5 5.5t-24.5 10.5t-23.5 16.5t-19 23.5q-33 0 -45.5 23t-12.5 69q0 12 7.5 16t17 4.5t19.5 9.5t14 28q9 43 64 83q-13 13 -34 21q-17 6 -1 15q12 8 36 8q23 0 46 -20q23 8 62 8q0 -9 6.5 -16t16.5 -7
h115q10 0 16.5 7t6.5 16q92 -22 125 -103h14q9 0 16 -7t7 -16.5t-7 -16.5t-16 -7z" />
    <glyph glyph-name="uniE61A" unicode="&#xe61a;" 
d="M512 812q-211 0 -361.5 -150.5t-150.5 -361.5q0 -104 40.5 -198.5t109.5 -163.5t163.5 -109.5t198.5 -40.5t198.5 40.5t163.5 109.5t109.5 163.5t40.5 198.5q0 139 -68.5 257t-186.5 186.5t-257 68.5zM512 762q94 0 179.5 -37t147.5 -99t98.5 -147t36.5 -179
q0 -156 -97 -283q-13 11 -30 19q-37 18 -62.5 22.5t-67.5 21.5q-39 16 -65.5 28t-33.5 16l-8 4l-1 81q4 3 9.5 9.5t17 32.5t16.5 60q13 -4 20 10.5t7 32.5q0 3 1.5 15t2 20t0 18t-4.5 14.5t-11 3.5q9 68 7 90q-5 55 -44.5 93.5t-117.5 42.5q-68 -4 -112.5 -44.5t-49.5 -91.5
q-3 -32 7 -90q-7 1 -11 -3.5t-4.5 -14.5t0 -18t2 -20t1.5 -15q1 -19 7.5 -33t19.5 -10q5 -34 15.5 -60t19.5 -34l8 -9l-1 -83q-20 -13 -107 -48q-43 -18 -68.5 -21.5t-61.5 -20.5q-10 -5 -30 -19q-97 127 -97 284q0 94 37 179.5t98.5 147t147 98.5t179.5 37z" />
    <glyph glyph-name="uniE61B" unicode="&#xe61b;" horiz-adv-x="1051" 
d="M354 -43h-90q44 -54 114 -54h464q61 0 104 43t43 104v483q0 61 -43 104t-104 43h-465h-1h-3q-46 -1 -83 -28.5t-52 -70.5h1q-8 -23 -8 -48v-3h49q1 28 16 51q20 32 55 44l6 2h1q1 1 2 1h2q2 1 4 1h2q1 1 2 1h3h2q2 1 4 1h1h4h1h450q43 0 74 -31t31 -74v-472
q0 -43 -31 -72.5t-74 -29.5h-450q-16 0 -31 5zM67 247l210 -268v114h627v290h-627v114z" />
    <glyph glyph-name="uniE61C" unicode="&#xe61c;" 
d="M621 158v7q22 15 38 34.5t25 43.5t15 44t8 49.5t2.5 46.5t0.5 47v14q0 98 -56 153.5t-155 55.5h-6q-95 0 -146 -54t-51 -155q0 -30 1 -49t6.5 -56.5t15.5 -64.5t31 -57.5t50 -51.5v-6q-63 -9 -114 -27t-85 -49t-34 -68q0 -162 329 -162q82 0 144.5 10t99.5 25.5t60 37.5
t31 43t8 46q0 29 -22 55t-58 43t-70 27.5t-68 17.5z" />
    <glyph glyph-name="uniE61D" unicode="&#xe61d;" 
d="M46 572q103 -35 118 -39q31 -9 64 12q71 45 128 66q60 21 111 -13q1 -1 13 -11q-54 -30 -57 -32q-45 -26 -65 -39q-29 -19 -39.5 -49.5t0.5 -61.5q11 -29 38.5 -47t54.5 -14q16 3 36 12q10 4 89 40q41 19 73 -14q58 -58 172 -171q13 -13 13.5 -30t-11.5 -30
q-12 -12 -29 -11.5t-31 13.5q-46 46 -56 55q0 1 -2 4l-4 3q-1 1 -3.5 1t-4.5 -2q-1 -1 1 -6.5t5 -7.5q13 -15 53 -56q16 -17 13 -38t-23 -31q-26 -12 -49 11q-30 30 -69 68l-12 7q-1 -9 8 -20q14 -14 52 -54q13 -14 14 -29q0 -28 -25 -39t-45 10l-60 60q-6 6 -10 9
q-1 0 -8 1v-8q2 -4 7 -10q2 -2 20 -20.5t27 -27.5q10 -11 10.5 -25.5t-7.5 -25.5q-11 -15 -28 -17t-31 10q-8 7 -22 23q-2 2 -1 7q3 33 -13 59.5t-46 38.5q-6 2 -8 9q-15 41 -54 58q-6 2 -8 8q-15 39 -52 54q-6 3 -8 8q-13 36 -45 51.5t-70 6.5q-51 -12 -71 -61q-1 -2 -2 -3
l-1 -2q-10 4 -27 10t-23 8v322v0zM978 259q-83 -15 -98 -17q-33 -5 -59 21q-32 31 -94.5 93t-93.5 93q-30 29 -65 12q-15 -7 -106 -53q-6 -3 -16.5 -8.5t-16.5 -8.5q-19 -10 -39.5 -3.5t-31.5 25.5q-10 19 -4 40t25 31q37 21 111 62.5t111 62.5l1 1q45 29 89 -8
q91 -77 94 -79q23 -20 52 -14q12 3 59.5 13.5t72.5 15.5q2 0 9 1v-280v0zM323 27q-23 -6 -25 -7q-23 -4 -36 7q-18 16 -11 38q1 4 4 12t4 11q-20 -5 -26 -6q-22 -4 -35.5 11t-6.5 37q1 3 3.5 10t3.5 11l-14 -4q-29 -10 -45 8t-11 43q6 22 23 39.5t38 20.5q25 3 42 -14
t13 -42q-1 -4 -1 -8q32 4 49 -13q17 -16 11 -50q36 4 52 -15q17 -21 8 -53q1 1 8.5 1.5t10.5 0.5q25 0 38.5 -19.5t7.5 -43.5q-7 -26 -37 -41.5t-55 -5.5q-15 5 -21.5 18t-1.5 28q1 4 2.5 8t4 9t3.5 9v0zM323 27z" />
    <glyph glyph-name="uniE61E" unicode="&#xe61e;" horiz-adv-x="1051" 
d="M702 -43q-15 -5 -31 -5h-450q-44 0 -74.5 29.5t-30.5 72.5v472q0 43 31 74t74 31h450h5h1q2 0 4 -1h2h3q1 0 2 -1h2q2 0 4 -1h1q2 0 3 -1h1l6 -2q35 -12 55 -44q15 -23 16 -51h49v3q0 25 -8 48h1q-15 43 -52 70.5t-83 28.5h-3h-1h-465q-61 0 -104 -43t-43 -104v-483
q0 -61 43 -104t104 -43h464q69 0 113 54h-89zM779 497v-114h-628v-290h628v-114l210 268z" />
    <glyph glyph-name="uniE61F" unicode="&#xe61f;" 
d="M760 371v103q0 5 -0.5 14t-5 34t-13 48t-26.5 50.5t-42.5 47.5t-64.5 34t-89.5 14t-89.5 -13.5t-64.5 -34.5t-42.5 -47t-26 -51.5t-13 -47t-6 -34.5v-14v-103h-104v-484h691v484h-104zM553 104v-113h-69v113q-34 20 -34 59q0 29 20 49.5t48.5 20.5t49 -20.5t20.5 -49.5
q0 -39 -35 -59zM691 371h-345v103q0 14 2 29.5t12.5 43t27.5 48t51 36.5t79.5 16t80 -16t51.5 -36.5t27 -48t12 -43t2 -29.5v-103z" />
    <glyph glyph-name="uniE620" unicode="&#xe620;" 
d="M922 567l-25 22l21 24q11 10 12 24.5t-8 25.5l-38 43q-10 11 -25 12t-26 -9l-301 -233q-78 38 -168.5 25.5t-160.5 -73.5q-95 -83 -103.5 -209t73.5 -221t207.5 -103t220.5 76q79 69 99 171.5t-25 192.5l49 56l30 -27q8 -8 19 -6.5t19 10.5l30 35q7 9 7 20.5t-8 18.5
l-30 26l38 43l27 -24q8 -7 19 -5.5t19 10.5l29 35q8 9 7.5 20.5t-8.5 19.5zM410.5 56.5q-33.5 -29.5 -77.5 -26.5t-73 36.5t-26 77.5t36.5 73.5t77.5 27t73 -36t26 -78t-36.5 -74z" />
    <glyph glyph-name="uniE621" unicode="&#xe621;" 
d="M555 274q22 5 48.5 11.5t37.5 9.5t25.5 4.5t25 -0.5t22.5 -7l42 -22q43 -22 83.5 -37.5t82.5 -24.5q14 126 -9 246.5t-78 176.5q-44 45 -135 69.5t-187.5 24.5t-187 -24.5t-135 -69.5t-68.5 -138t-24 -191.5t24 -191t68.5 -138t135 -70t187 -24.5t187.5 24.5t135 69.5
q12 12 23 29q-11 2 -31 7t-35.5 8.5t-25.5 4.5q-22 3 -139 -21t-136 -26q-23 -2 -49 10.5t-57.5 34t-40.5 26.5q-37 20 -158 100v3q0 2 0.5 7.5t2.5 10t5.5 10.5t10 8.5t16.5 4t24 -2.5q28 -7 69 -24.5t68 -31.5t27 -15q3 -1 8 -2l20 -4q15 -3 29.5 -4.5t32.5 -1t32 4.5
q79 24 100 45q18 19 10 30q-3 4 -9 3q-33 -5 -87.5 -8.5t-88.5 2.5q-23 7 -34.5 30t-0.5 41q5 0 14.5 1t44 7t75.5 15zM283 535q60 31 95 78l43 -24q-16 -20 -36 -35v-67l-13 -2v-7h127l5 6q-18 11 -37 31q-7 8 -13 17l-51 -8l-11 28l47 7q-9 21 -16 45l47 -4q5 -19 13 -33
l16 3q-9 15 -18 26l15 14q23 -11 37 -22l-15 -15l13 2l16 20l34 -24l-14 -18l-66 -12q1 -1 1 -2q26 -26 44 -26q5 0 10 27l18 -2q-2 -12 -2 -19q0 -14 12 -26q-9 -20 -29 -22l6 -5l-13 -13v-81l-26 -3q30 -11 56 -24l-39 -35q-36 31 -90 55l14 21q19 -5 37 -10v80h-128v-92
l-48 -7v137l11 -1v33q-19 -8 -41 -13zM323 316l-10 20q99 32 99 94v18l53 -8q0 -27 -3 -32q-8 -35 -43 -59q-38 -28 -96 -33z" />
    <glyph glyph-name="uniE622" unicode="&#xe622;" 
d="M564 698q-23 11 -43 -5l-229 -191h-183q-17 0 -28.5 -11.5t-11.5 -27.5l-1 -320q0 -16 11.5 -28t28.5 -12h185l228 -190q11 -9 26 -9q9 0 17 4q23 10 23 36v718q0 25 -23 36zM719 499q-15 7 -30.5 1.5t-22.5 -20.5t-1.5 -30.5t19.5 -22.5q4 -2 8 -5t15 -13t19 -22.5
t14.5 -34t6.5 -46.5q0 -27 -6.5 -49.5t-14 -36t-17 -24t-13.5 -13.5t-7 -4q-15 -7 -20 -23t2 -31q11 -22 36 -22q9 0 17 4q6 3 13 8t24.5 21.5t30.5 37t23.5 56t10.5 76.5q0 39 -11 73.5t-25 54.5t-32 36.5t-26 21t-13 7.5zM843 616q-14 9 -30 5.5t-25 -17.5t-5.5 -30
t17.5 -25q5 -4 13 -10.5t26 -28t31.5 -47t24.5 -68.5t11 -92t-10.5 -92t-23.5 -69t-30.5 -47.5t-25 -28t-12.5 -9.5q-14 -9 -17 -25.5t6 -30.5q12 -17 33 -17q12 0 22 6q7 5 17.5 13.5t33.5 36t40.5 60t32 87.5t14.5 116t-15 116t-33.5 87.5t-42.5 60.5t-34.5 36t-17.5 13z
M843 616z" />
    <glyph glyph-name="uniE623" unicode="&#xe623;" 
d="M922 465q0 15 -10.5 25.5t-25.5 10.5h-787q-15 0 -25.5 -10.5t-10.5 -25.5v-533q0 -15 10.5 -25.5t25.5 -10.5h787q15 0 25.5 10.5t10.5 25.5v136h-225h-2q-54 0 -92.5 38t-38.5 92t38.5 92.5t92.5 38.5h2h225v136zM618 198q0 -32 22.5 -54.5t54.5 -22.5t54.5 22.5
t22.5 54.5t-22.5 54.5t-54.5 22.5t-54.5 -22.5t-22.5 -54.5zM836 534l-44 156q-4 11 -14.5 17t-22.5 3l-620 -176h701z" />
    <glyph glyph-name="uniE624" unicode="&#xe624;" 
d="M960 -123q0 152 -95.5 270.5t-242.5 155.5q55 31 88 86.5t33 121.5q0 100 -70 170t-169.5 70t-169.5 -70t-70 -170q0 -67 34.5 -123.5t92.5 -87.5q-143 -39 -235 -156.5t-92 -266.5q0 -10 1 -27h894l-2 2h2q1 16 1 25z" />
    <glyph glyph-name="uniE625" unicode="&#xe625;" 
d="M870 -77h-713q-38 0 -64.5 26.5t-26.5 64.5v347h895v-347q0 -38 -27 -64.5t-64 -26.5zM632 160l-36 -128h219l36 128h-219zM66 580q0 38 26.5 64.5t64.5 26.5h713q37 0 64 -26.5t27 -64.5v-91h-895v91z" />
    <glyph glyph-name="uniE626" unicode="&#xe626;" 
d="M912 647h-648q-33 0 -52 -21t-30 -66l-141 -506q0 -35 25.5 -61t59.5 -26h648q32 0 49 21t34 66l140 506q0 35 -25 61t-60 26zM666 158h-295v37h125v73h-120v37h120v25h-116v37h276v-37h-114v-25h119v-37h-119v-73h124v-37zM379 256h48l3 -11q2 -7 8 -7h38v-34h-56
q-22 0 -31 25zM661 256q-11 -34 -21 -42q-10 -10 -23 -10h-56v34h37q9 0 15 18h48zM669 378h-42q-10 0 -17 9l-24 30h-128l-26 -30q-7 -9 -18 -9h-44v40h26q6 0 11 10l20 28h190l18 -28q5 -10 10 -10h24v-40z" />
    <glyph glyph-name="uniE627" unicode="&#xe627;" 
d="M675 643q8 -33 7 -63q0 -1 -3 -37.5t-2 -46.5q1 -6 2 -9.5t4 -8.5t4 -8q11 -23 3 -67q-4 -24 -13 -36q-3 -5 -13.5 -10t-13.5 -11q-5 -10 -6 -30.5t-4 -27.5q-2 -8 -12.5 -21t-11.5 -28q4 0 12 -1t12 -2q25 -53 38 -62q7 -2 19.5 -5.5t18.5 -5.5q26 -10 75.5 -31.5
t62.5 -26.5q9 -4 30.5 -11.5t32.5 -12.5t23.5 -16t17.5 -26q0 -9 1 -61t1 -73h-882q0 21 1 73t1 61q5 15 17.5 26t23.5 16t32.5 12.5t30.5 11.5q13 6 62.5 27t75.5 31l21 6q14 4 17 5q13 9 38 62l18 4q-3 13 -12.5 24t-11.5 17q-1 12 -3.5 36t-3.5 36l-5 1l-8 2q-5 1 -6 2
q-6 4 -11 12.5t-7.5 22t-4 22t-2.5 25t-1 17.5q0 4 6.5 17t3.5 24q-34 164 70 198q22 9 37.5 14t42.5 10t54 0t52 -21l17 -16l29 -5q6 -3 11.5 -12t8.5 -16z" />
    <glyph glyph-name="uniE628" unicode="&#xe628;" 
d="M512 623h324q24 0 37 -2q87 -11 87 -98q1 -228 0 -438q0 -48 -29.5 -78t-76.5 -30q-362 -1 -686 0q-47 0 -75 28.5t-29 75.5q-1 219 0 437q1 104 107 105h341zM413 126v82q-2 25 -19 44t-42 21q-63 5 -128 0q-22 -1 -37.5 -15t-18.5 -36q-3 -14 -4 -29.5t-1 -36t-1 -30.5
h251zM365 402q-1 32 -22.5 53.5t-53.5 21.5t-54.5 -22t-22.5 -54t22.5 -54t54.5 -22t54 22.5t22 54.5zM661 223q107 0 118 1q33 0 35 26q1 30 -33 30q-122 1 -239 0q-33 0 -32 -31q1 -25 35 -25q11 -1 116 -1zM661 121h118q34 0 35 26q0 13 -8.5 21t-24.5 8q-107 1 -240 0
q-16 0 -22 -9q-12 -18 -6 -27q11 -17 28 -18t120 -1zM704 325h75q16 0 25.5 7.5t8.5 19.5q0 25 -32 26q-78 1 -156 0q-15 0 -24 -8.5t-7 -19.5q3 -25 33 -25h77z" />
    <glyph glyph-name="uniE629" unicode="&#xe629;" 
d="M732.5 -212q14.5 0 25 10.5t10.5 25.5t-10 25l-421 421q-13 12 -13 30t13 30l421 421q10 10 10 25t-10.5 25.5t-25 10.5t-25.5 -10l-421 -421q-33 -34 -33 -81t33 -81l421 -421q11 -10 25.5 -10z" />
    <glyph glyph-name="uniE62A" unicode="&#xe62a;" 
d="M781 454q-1 7 0 18h-1q-2 -9 -7 -18l-36 -72h55zM412 163l10 -5q5 7 8 15h-13q-2 -6 -5 -10zM509 730q-117 0 -216 -57.5t-156 -156.5t-57 -215.5t57 -215.5t156 -156.5t216 -57.5t215.5 57.5t156 156.5t57.5 215.5t-57.5 215.5t-156 156.5t-215.5 57.5zM814 508l37 -208
h-48l-7 47h-74l-24 -47h-47l111 208h52zM736 231q-7 -4 -17 -11q-8 15 -16 28l15 10q9 -12 18 -27zM228 113h-19v53q-5 -12 -11 -22q-3 14 -6 26q10 16 16 42h-15v19h16v27h19v-27h15v-19h-15v-18l5 4l20 -20l-14 -12q-5 7 -11 13v-66zM323 114q-21 12 -36 30
q-17 -19 -42 -32q-5 11 -12 20q25 11 41 28q-17 27 -25 62l18 8q6 -31 21 -53q15 23 20 55h-64v19h84v-19q-6 -42 -27 -72q14 -15 35 -25q-7 -11 -13 -21zM303 473q-30 0 -51.5 -19.5t-27.5 -51.5q-5 -30 8.5 -49t43.5 -19q27 0 52 14l-7 -41q-25 -11 -61 -11q-46 0 -68 28
t-14 75q9 49 44.5 80.5t83.5 31.5q30 0 49 -8l-7 -43q-19 13 -45 13zM387 508h117l-7 -37h-73l-9 -53h67l-6 -36h-68l-14 -82h-44zM500 125.5q-4 -11.5 -15 -12.5q-15 0 -24 23q-10 -13 -21 -23q-6 8 -14 14q2 3 5 5l-6 4q-12 -10 -28 -17q-5 9 -10 15q13 5 22 12
q-10 6 -19 10q5 8 9 17h-7v15h14q2 4 3 9l18 -1l-3 -8h24v-15q-4 -13 -11 -23l8 -4q5 6 10 13q-4 24 -5 63h-61v-39q0 -43 -14 -72q-8 9 -16 15q12 20 12 57v55h79l-1 19h19v-19h13q-6 8 -11 14l14 7q6 -7 13 -16l-8 -5h13v-16h-34q1 -23 2 -39q8 14 14 30l17 -7
q-11 -29 -26 -52q5 -19 9 -18q2 0 2.5 2t1.5 9t2 16q8 -5 16 -9q-2 -17 -6 -28.5zM393 199v15h54v-15h-54zM514.5 324q-22.5 28 -13.5 75q8 49 44 80.5t84 31.5q30 0 49 -8l-8 -43q-18 13 -45 13q-30 0 -51 -19.5t-27 -51.5q-5 -30 8.5 -49t42.5 -19q28 0 53 14l-8 -41
q-24 -11 -60 -11q-46 0 -68.5 28zM576 232l-16 -14q-9 11 -23 27l15 13q16 -17 24 -26zM539 130q5 6 5 14v49h-14v19h34v-53l16 16q2 -9 6 -18q-19 -20 -36 -41zM659 114q-29 25 -36 59q-10 -34 -38 -59q-6 11 -14 21q26 21 32.5 43.5t6.5 78.5h21q0 -18 -1 -34
q6 -65 43 -87q-9 -13 -14 -22zM706 137q3 4 4 11v46h-12v19h31v-58l13 10q1 -6 4 -20q-14 -10 -31 -24zM841 120h-102v19h12v73h19v-73h16v90h-43v19h96v-19h-34v-33h31v-20h-31v-37h36v-19z" />
    <glyph glyph-name="uniE62B" unicode="&#xe62b;" 
d="M396 183q17 -18 40.5 -36.5t38.5 -27.5l15 -10q3 -2 7.5 -5.5t19.5 -10.5t29 -11t32 -3t32 10q26 16 52.5 34t36 25t22.5 11.5t22.5 1.5t26.5 -12q38 -22 68 -43t48.5 -38t31.5 -33t18.5 -27.5t7.5 -22.5t1.5 -16.5t-1.5 -10.5q-15 -53 -97 -82.5t-177 -5.5
q-218 54 -376 211q-157 158 -211 376q-24 95 5.5 177t82.5 97q5 1 10.5 1.5t16.5 -1.5t22.5 -8t28 -18.5t33 -31t38 -48.5t42.5 -68q9 -17 12 -26.5t-1.5 -22.5t-11 -22.5t-25 -36t-34.5 -52.5q-13 -28 -8.5 -54.5t16.5 -46.5l12 -20q35 -54 74 -93zM396 183z" />
    <glyph glyph-name="uniE62C" unicode="&#xe62c;" 
d="M556 145l-37 35l-49 46v-239h89v161zM344 157v-170h89v264zM265 73l-47 45v-131h89v130zM782 385l-60 -64v-334h88v371zM596 187v-200h89v295zM600 654l228 -21l31 -226l-77 74l-226 -240l-37 35l-68 65l-13 12l-173 -184l-105 100l173 183l48 50l48 51l117 -111l131 138
zM115 -90v821h-37v-821v-37h37h822v37h-822z" />
    <glyph glyph-name="uniE62D" unicode="&#xe62d;" 
d="M299 185h85v34h-85v-34zM349 94h79v33h-79v-33zM255 94h78v33h-78v-33zM349 48h79v33h-79v-33zM381 471h-25v-37h28q-11 13 -20 22zM430 576h-178v-191h178v191zM421 400h-161v34h58v37h-51v34h51v20h-55v34h155v-34h-62v-20h58v-34h-21q12 -11 24 -23l-15 -14h19v-34z
M255 48h78v33h-78v-33zM830 708h-644q-34 0 -58 -24t-24 -58v-648q0 -34 24 -58t58 -24h644q35 0 59 24t24 58v648q0 34 -24 58t-59 24zM530 495h119v16h-96v32h96v16h-113v32h64q-6 14 -13 25l41 8q9 -15 19 -33h44q11 14 23 34l43 -9l-22 -25h69v-32h-114v-16h99v-32h-99
v-16h120v-32h-280v32zM211 611h260v-272h-41v10h-178v-11h-41v273zM217 -21q-4 10 -7 15q54 15 95 31l8 -13q-42 -17 -96 -33zM466 -18q-38 13 -98 30l8 13q43 -12 97 -28zM478 172h-129v-32h94v-105h-204v105h94v32h-127v13h78v34h-69v14h69v30h15v-30h85v30h16v-30h68v-14
h-68v-34h78v-13zM799 -5h-259v14h122v82h-103v14h103v47h-83v15h177v-15h-79v-47h103v-14h-103v-82h122v-14zM574 66l12 9q20 -21 38 -40l-13 -11q-15 18 -37 42zM765 66q-21 -22 -41 -42l-12 10q20 19 40 41zM799 158q-82 30 -129 86q-47 -53 -128 -90q-4 5 -11 13
q96 42 137 98l18 -4l-3 -3q-2 -3 -3 -4q50 -56 127 -82q-6 -10 -8 -14zM792 335q-85 8 -123 62q-31 -52 -128 -62q-4 14 -14 37q79 8 104 40h-97v32h111q2 7 3 16h41q-1 -9 -2 -16h120v-32h-103q31 -32 107 -37q-6 -10 -19 -40z" />
    <glyph glyph-name="uniE62E" unicode="&#xe62e;" 
d="M508 730q-118 0 -218.5 -58t-158.5 -158t-58 -218.5t58 -218.5t158.5 -158t218.5 -58q88 0 168.5 34.5t139 92.5t93 138.5t34.5 169t-34.5 169t-93 139t-139 92.5t-168.5 34zM599 -10h-76q6 37 6 90v463h-43q-35 0 -70 -5v64q26 -4 67 -4h50q33 0 66 4q-7 -74 -7 -133
v-389q0 -51 7 -90z" />
    <glyph glyph-name="uniE62F" unicode="&#xe62f;" 
d="M508 731q-118 0 -218.5 -58.5t-158.5 -158.5t-58 -218t58 -218.5t158.5 -158.5t218.5 -58q88 0 168.5 34.5t139 92.5t93 138.5t34.5 169t-34.5 169t-93 139t-139 93t-168.5 34.5zM509 -20q-121 0 -179 65q-22 26 -41 78l68 17q9 -31 19.5 -47t28.5 -29q41 -29 104 -29
q69 0 110 33.5t41 90.5q0 59 -42 90.5t-121 31.5q-28 0 -64 -4v63q27 -4 59 -4q80 0 117 36q32 31 32 78q0 51 -34.5 80t-94.5 29q-74 0 -107 -43q-14 -18 -25 -56l-67 14q18 54 44 80q53 58 159 58q87 0 138 -42t51 -114q0 -37 -14.5 -68t-41.5 -49q-26 -20 -75 -29
q62 -6 99 -34q53 -42 53 -121q0 -81 -58 -128t-159 -47z" />
    <glyph glyph-name="uniE630" unicode="&#xe630;" 
d="M508 731q-118 0 -218.5 -58.5t-158.5 -158.5t-58 -218t58 -218.5t158.5 -158.5t218.5 -58t218 58t158.5 158.5t58.5 218.5q0 88 -34.5 168.5t-93 139t-139 93t-168.5 34.5zM723 -16q-48 4 -99 4h-243q-56 0 -88 -4q7 48 10.5 65.5t12.5 40.5q29 73 104 138
q21 17 35.5 27.5t87.5 60.5q59 40 82 70t23 67q0 46 -36 73t-97 27q-79 0 -116 -52q-20 -29 -28 -81l-67 12q9 43 20 68t31 47q54 61 160 61q91 0 145 -42t54 -113q0 -61 -47 -113q-18 -21 -42.5 -39t-93.5 -65q-47 -31 -71.5 -52t-44.5 -46q-33 -44 -45 -93h255q55 0 98 6
v-67z" />
    <glyph glyph-name="uniE631" unicode="&#xe631;" 
d="M508 731q-7 -4 -20 -11.5t-53.5 -28t-81 -37.5t-98.5 -34.5t-111 -25.5q1 -10 2.5 -26.5t6 -64t9 -91.5t11 -99.5t12.5 -97.5t13 -74.5t13 -41.5q23 -35 145 -130.5t152 -95.5t152 95.5t145 130.5q13 19 29.5 144.5t27 234.5t10.5 116q-53 8 -110 25t-100.5 35.5t-79 36
t-55.5 29t-19 11.5zM739 139q-11 -15 -52 -47.5t-106.5 -80t-72.5 -52.5q-7 5 -72.5 52.5t-106.5 80t-52 47.5q-19 47 -45 394q137 34 276 110q139 -76 276 -110q-28 -344 -45 -394zM397 525l46 -14q-12 -44 -27 -83v-246h-43v154q-12 -20 -24 -38q-4 34 -11 66
q36 63 59 161zM451 511h201v-130h-78v-32h100v-39h-78q27 -38 82 -63q-17 -28 -27 -45q-50 31 -77 79v-99h-48v97q-34 -49 -81 -82q-11 21 -26 42q47 27 81 71h-71v39h97v32h-75v130zM606 469h-109v-47h109v47z" />
    <glyph glyph-name="uniE632" unicode="&#xe632;" 
d="M853 56q8 0 13 -5t5 -12.5t-5 -12t-13 -4.5h-76v-47q0 -7 -5 -11t-12.5 -4t-12.5 4t-5 11v47h-60q-8 0 -13.5 4.5t-5.5 12t5.5 12.5t13.5 5h60v34h-60q-8 0 -13.5 5t-5.5 12t5.5 12.5t13.5 5.5h49l-55 59q-9 10 4.5 22t22.5 2l57 -62l55 62q9 10 22.5 -2t4.5 -22l-55 -59
h65q8 0 13.5 -5.5t5.5 -12.5t-5.5 -12t-13.5 -5h-75v-34h76zM760.5 321q-94.5 0 -161 -65t-66.5 -156.5t66.5 -156.5t161 -65t161 65t66.5 156.5t-66.5 156.5t-161 65zM467 94q0 102 66 180.5t166 100.5q18 43 18 91q0 98 -71.5 168t-172.5 70t-172 -70t-71 -168
q0 -71 39 -129.5t104 -86.5q-134 -33 -227 -135t-111 -236h531q-46 40 -72.5 96t-26.5 119z" />
    <glyph glyph-name="uniE633" unicode="&#xe633;" horiz-adv-x="1026" 
d="M389 722q-113 -94 -191.5 -168.5t-175.5 -180.5q-15 -21 -20 -50.5t1 -50.5t19 -21h122v-304q0 -121 53 -121h190v303h243v-303h175q30 0 49 29t19 92v304h122q10 0 17.5 9t10 23.5t1 30.5t-9 32t-19.5 27q-156 158 -384 345q-50 39 -89 50.5t-69 -0.5t-64 -46z" />
    <glyph glyph-name="uniE634" unicode="&#xe634;" 
d="M540 182v257l-182 -257h182zM507 730q-118 0 -218 -58t-158.5 -158t-58.5 -218.5t58.5 -218.5t158.5 -158t218 -58q89 0 169.5 34t138.5 92.5t92.5 139t34.5 169t-34.5 169t-92.5 138.5t-138.5 92.5t-169.5 34.5zM676 122h-75v-144h-61v144h-296l345 490h12v-430h75v-60z
" />
    <glyph glyph-name="uniE635" unicode="&#xe635;" 
d="M516 731q-119 0 -219 -58.5t-158 -158.5t-58 -218t58 -218.5t158 -158.5t218.5 -58t218.5 58t158 158.5t58 218.5q0 88 -34 168.5t-92.5 139t-139 93t-168.5 34.5zM675 56q-61 -77 -166 -77q-86 0 -140.5 48.5t-61.5 127.5l81 7q9 -59 42 -89t79 -30q56 0 94.5 42
t38.5 112q0 66 -37 104.5t-97 38.5q-37 0 -67.5 -17t-47.5 -44l-73 9l61 324h314v-74h-252l-34 -169q57 39 120 39q82 0 139 -57t57 -147q0 -86 -50 -148z" />
    <glyph glyph-name="uniE636" unicode="&#xe636;" 
d="M512 793q-100 0 -191.5 -39t-157.5 -105t-105 -157.5t-39 -191.5t39 -191.5t105 -157.5t157.5 -105t191.5 -39t191.5 39t157.5 105t105 157.5t39 191.5t-39 191.5t-105 157.5t-157.5 105t-191.5 39zM466 54q-64 0 -121.5 19t-95 57t-37.5 86q0 80 90 170
q57 58 115.5 80.5t83.5 -2.5q22 -22 7 -71q-3 -10 6 -9q8 1 8 2q48 20 84 20t52 -21q15 -21 0 -60q-3 -5 -1.5 -8.5t3.5 -4.5t8 -3q30 -9 51.5 -30t21.5 -53q0 -62 -79 -117t-196 -55zM694 374q7 21 -7.5 37t-36.5 12q-8 -2 -15 2.5t-9 12.5t2.5 15t13.5 9q44 9 74 -24.5
t16 -76.5q-2 -8 -9.5 -11.5t-15.5 -1t-11.5 10t-1.5 15.5v0zM811 336q-3 -9 -11.5 -13.5t-17.5 -1.5t-13.5 11.5t-1.5 17.5q9 28 3 58.5t-27 53.5t-50 32t-59 3q-9 -2 -17.5 3.5t-10.5 15t3.5 17.5t14.5 10q42 9 83 -4t70.5 -45.5t38 -75.5t-4.5 -82zM636 236
q-5 50 -62 79.5t-132 22t-125 -47.5t-45 -89.5t61.5 -79.5t132 -22.5t125.5 48t45 89.5zM530 182q-15 -35 -53.5 -51t-75.5 -4q-36 12 -50 43t2 63t51.5 47.5t71.5 6.5q37 -10 53 -40.5t1 -64.5zM428 217q-12 5 -25 0.5t-20.5 -15.5t-4.5 -23t15 -17.5t25.5 -1t20.5 16.5
t4 23.5t-15 16.5zM466 233q-10 4 -16.5 -6.5t4.5 -14.5q11 -5 17 6t-5 15zM466 233z" />
    <glyph glyph-name="uniE637" unicode="&#xe637;" 
d="M1020 -210h-111h-2h-113h-113v113h113h113h2v113v112h113v-112v-113v-113h-2zM796 356h111h2h111v-112h-111h-2h-111v112zM684 128h112v-112h-112v112zM681 810h341v-341h-341v341zM756 544h191v191h-191v-191zM815 676h73v-73h-73v73zM681 244h-113v-228v-113v-113h-112
v113v113v228h-113v112h113v341v113h112v-113v-341h113v-112zM2 810h341v-341h-341v341zM77 544h191v191h-191v-191zM136 676h73v-73h-73v73zM228 356v-112h-113h-113v112h113h113zM343 -210h-341v341h341v-341zM268 56h-191v-191h191v191zM209 -76h-73v73h73v-73zM209 -76z
" />
    <glyph glyph-name="uniE638" unicode="&#xe638;" 
d="M286 510q-17 0 -30 -10t-13 -25.5t13 -25.5t30 -10q16 0 25.5 10t9.5 26t-9.5 25.5t-25.5 9.5zM486 439q16 0 26 10t10 26t-10 25.5t-26 9.5q-17 0 -30 -10t-13 -25.5t13 -25.5t30 -10zM579 303q-11 0 -20 -9t-9 -19.5t9 -19.5t20 -9q15 0 25.5 8.5t10.5 20t-10.5 20
t-25.5 8.5zM736 303q-11 0 -19.5 -9t-8.5 -19.5t8.5 -19.5t19.5 -9q15 0 25.5 8.5t10.5 20t-10.5 20t-25.5 8.5zM512 792q-100 0 -191 -39t-157 -105t-105 -157t-39 -191t39 -191t105 -157t157 -105t191 -39t191 39t157 105t105 157t39 191t-39 191t-105 157t-157 105
t-191 39zM379 146q-28 0 -101 14l-99 -50l28 86q-114 80 -114 193q0 101 83.5 172t202.5 71q105 0 187 -57t101 -144q-15 2 -28 2q-101 0 -172 -66t-71 -160q0 -30 9 -60q-15 -1 -26 -1zM800 46l22 -72l-79 43q-57 -14 -85 -14q-102 0 -173 60.5t-71 146.5t71 147t173 61
q97 0 169.5 -61.5t72.5 -146.5q0 -89 -100 -164zM800 46z" />
    <glyph glyph-name="uniE639" unicode="&#xe639;" 
d="M1019 24l-507 552l-507 -551h209l297 339l297 -339zM808 25z" />
    <glyph glyph-name="uniE63A" unicode="&#xe63a;" 
d="M513 617q-131 0 -224 -90t-93 -217q0 -124 89 -214q40 -35 83 -56q27 -14 53 -24q45 -13 92 -13q131 0 224 90t93 217t-93 217t-224 90v0zM513 49q-112 0 -191 76.5t-79 184.5t79 184.5t191 76.5t191 -76.5t79 -184.5t-79 -184.5t-191 -76.5v0zM340 248q29 -24 59 -39
t57 -20.5t53.5 -6t49 5t42.5 12.5t35.5 15.5t26.5 15.5t17 12l6 5q0 -3 -0.5 -8.5t-4 -21.5t-9 -30t-18.5 -31.5t-31 -30.5t-46.5 -21.5t-63.5 -8.5t-64 8.5t-46.5 21.5t-30.5 30.5t-18.5 31.5t-9 30t-4 21.5t-0.5 8.5v0zM513 712q-145 0 -257.5 -86.5t-146.5 -219.5
q-4 0 -11.5 -2t-26.5 -11t-33.5 -21t-25.5 -36.5t-9.5 -55t15 -53.5t30 -34.5t36 -18t29 -8t12.5 -1.5q4 -1 8 -0.5t14.5 2.5t12.5 3q-28 67 -28 140q0 100 51 185t138.5 134.5t191.5 49.5t191.5 -49.5t138.5 -134.5t51 -185q0 -120 -72.5 -216t-186.5 -133q-5 -2 -9.5 -1.5
t-7.5 1.5l-3 1q-26 4 -58 -5q-11 -3 -16.5 -13t-4.5 -22q1 -28 26 -31q56 -9 70 16q0 2 2 6t3.5 6.5t4 5.5t5.5 4q87 29 154 91t100 145q5 0 13 1.5t28.5 9.5t36 20t29 35t14.5 52t-9.5 52.5t-26 36t-31.5 21t-27 11.5l-11 2q-34 133 -146.5 219.5t-257.5 86.5v0zM513 712z
" />
    <glyph glyph-name="uniE63B" unicode="&#xe63b;" 
d="M147 47q19 -16 44 -16q3 0 8 1q28 3 46 26l140 186l140 -118q22 -19 51 -15q28 3 46 25l321 413q2 3 6 10l56 66q23 27 14.5 42t-43.5 10l-265 -43q-34 -5 -40.5 -26t19.5 -45l53 -49l-185 -237l-140 118q-22 19 -51.5 16t-46.5 -27l-141 -186l-68 55q-22 18 -50 15.5
t-45.5 -24.5t-15 -50.5t24.5 -46.5z" />
    <glyph glyph-name="uniE63C" unicode="&#xe63c;" 
d="M756 810h-488q-3 0 -8 -0.5t-17 -4.5t-21 -10.5t-16.5 -21.5t-7.5 -36l-1 -874q1 -1 0 -8t2.5 -18t9 -21.5t20.5 -18t35 -7.5h495q3 0 7.5 0.5t16 4t20.5 10t16.5 21t7.5 34.5v877l-1 7q0 8 -3.5 18.5t-10 21.5t-21.5 18.5t-35 7.5v0zM441 774h141v-35h-141v35v0z
M389 774q7 0 12 -5t5 -12t-5 -12.5t-12 -5.5t-12.5 5.5t-5.5 12.5t5.5 12t12.5 5v0zM512 -139q-15 0 -25.5 10t-10.5 24.5t10.5 25t25 10.5t25 -10.5t10.5 -25t-10.5 -24.5t-24.5 -10v0zM758 1h-493v703h493v-703v0zM758 1zM728 161h-47h-1h-47h-48v47h48h47h1v48v48h48v-48
v-48v-47h-1zM634 400h46h1h47v-48h-47h-1h-46v48zM586 304h48v-48h-48v48zM585 592h144v-144h-144v144zM617 480h80v80h-80v-80zM642 535h30v-31h-30v31zM585 352h-48v-96v-48v-47h-47v47v48v96h-48v48h48v144v48h47v-48v-144h48v-48zM298 592h144v-144h-144v144zM330 480
h80v80h-80v-80zM354 535h31v-31h-31v31zM393 400v-48h-47h-48v48h48h47zM442 161h-144v144h144v-144zM410 273h-80v-80h80v80zM385 217h-31v31h31v-31zM385 217z" />
    <glyph glyph-name="uniE63D" unicode="&#xe63d;" 
d="M900 780h-122v-126h122v-714h-778v714h119v126h-239v-126v-714v-120h120h778h122v120v714v126h-122zM512 61l266 304h-180v415h-172v-415h-180zM512 61z" />
    <glyph glyph-name="uniE63E" unicode="&#xe63e;" 
d="M971 74h-883l441 485z" />
    <glyph glyph-name="uniE63F" unicode="&#xe63f;" 
d="M823 182q0 -26 18.5 -45t43.5 -19q26 0 44 19t18 45v245q0 26 -18 44.5t-44 18.5q-25 0 -43.5 -18.5t-18.5 -44.5v-245zM601 635q0 12 9 21t22 9t22 -9t9 -21q0 -13 -9 -22t-22 -9t-22 9t-9 22zM366 635q0 12 8.5 21t21.5 9q12 0 21 -9t9 -21q0 -13 -9 -22t-21 -9
q-13 0 -21.5 9t-8.5 22zM238 39q0 -20 14 -34.5t35 -14.5h54v-136q0 -26 18 -44.5t44 -18.5t44 18.5t18 44.5v136h97v-136q0 -26 17.5 -44.5t43.5 -18.5t44 18.5t18 44.5v136h55q20 0 34.5 14.5t14.5 34.5v449h-551v-449zM788 528q-7 63 -45.5 113.5t-99.5 79.5l50 73
q7 10 -1 13q-6 4 -12 -3l-54 -76q-58 21 -114 21q-57 0 -115 -21l-52 76q-7 8 -12 3q-8 -4 -2 -13l51 -73q-62 -30 -101 -80.5t-44 -112.5h551zM77 182q0 -26 18 -45t44 -19q25 0 43.5 19t18.5 45v245q0 26 -18.5 44.5t-43.5 18.5q-27 0 -44.5 -18.5t-17.5 -44.5v-245z
M77 182z" />
    <glyph glyph-name="uniE640" unicode="&#xe640;" 
d="M787 268q0 36 11.5 69.5t24 52.5t33.5 38.5t25.5 22.5t14.5 9q-21 31 -48.5 52t-54.5 30.5t-46 13.5t-35 4q-34 4 -73.5 -7.5t-72 -25t-47.5 -13.5q-17 0 -74 22.5t-93 21.5q-64 -1 -119.5 -35t-88.5 -91q-32 -56 -40 -127t5.5 -139.5t39 -131t59.5 -111.5q20 -29 34 -47
t35 -39.5t43.5 -31.5t46.5 -9q29 1 76.5 21t88.5 20q39 0 86 -20t80 -20q25 1 46.5 10.5t42 30t33.5 37.5t33 46q43 64 70 143l-1 1q-7 3 -16.5 7.5t-32.5 22t-40 38.5t-31 57.5t-15 77.5zM660 643q28 34 42.5 76.5t10.5 84.5q-38 -1 -79.5 -22.5t-69.5 -53.5
q-27 -31 -43 -73.5t-10 -82.5q40 -3 80.5 17t68.5 54zM660 643z" />
    <glyph glyph-name="uniE641" unicode="&#xe641;" 
d="M907.5 297.5q-2.5 -6.5 -7.5 -11.5q-12 -12 -30 -9h-165v-353v0q0 -11 -8 -21l-1 -1q0 -1 -0.5 -1.5t-1.5 -1t-1 -1.5q-10 -8 -22 -8v0h-318q-14 0 -24 10t-10 24v0v353h-170q-7 0 -14 3q-13 5 -19 18q-9 22 8 39l363 363q16 17 39 7q6 -3 11 -8l363 -363q10 -11 10 -25
q0 -7 -2.5 -13.5zM182 573q-28 0 -48 20t-20 48t20 48t48 20t48 -20t20 -48t-20 -48t-48 -20z" />
    <glyph glyph-name="uniE642" unicode="&#xe642;" 
d="M512 699q-108 0 -200 -53.5t-145.5 -145.5t-53.5 -200t53.5 -200t145.5 -145.5t200 -53.5t200 53.5t145.5 145.5t53.5 200t-53.5 200t-145.5 145.5t-200 53.5zM865 300q0 -96 -47 -177.5t-128.5 -128.5t-177.5 -47t-177.5 47t-128.5 128.5t-47 177.5t47 177.5
t128.5 128.5t177.5 47t177.5 -47t128.5 -128.5t47 -177.5zM472 89h80v-80h-80v80zM679.5 365.5q-17.5 -31.5 -69.5 -76.5q-34 -31 -44.5 -45t-15.5 -33t-6 -61h-68v21q0 41 12 71q8 23 28 46q14 17 50.5 49t47 51.5t10.5 41.5q0 41 -32 72t-78 31q-45 0 -75 -28t-39 -88
l-73 9q10 80 58.5 122.5t127.5 42.5q84 0 134 -45.5t50 -110.5q0 -38 -17.5 -69.5z" />
    <glyph glyph-name="uniE643" unicode="&#xe643;" horiz-adv-x="1025" 
d="M148 -9q19 -15 43 -15h8q29 4 46 27l141 186l140 -118q23 -19 51 -16q29 3 47 26l321 414q3 3 6 10l57 66q22 27 13.5 42t-42.5 10l-266 -43q-35 -5 -41 -26t20 -45l53 -49l-185 -238l-141 119q-22 19 -51.5 15.5t-46.5 -26.5l-142 -187l-67 55q-22 18 -50.5 15.5
t-46 -24.5t-15 -50.5t24.5 -46.5z" />
    <glyph glyph-name="uniE644" unicode="&#xe644;" horiz-adv-x="1025" 
d="M984 -38h-213q-17 0 -29.5 -12t-12.5 -29.5t12.5 -30t29.5 -12.5h213q17 0 29.5 12.5t12.5 30t-12.5 29.5t-29.5 12zM984 215h-213q-17 0 -29.5 -12.5t-12.5 -29.5t12.5 -29.5t29.5 -12.5h213q17 0 29.5 12.5t12.5 29.5t-12.5 29.5t-29.5 12.5zM771 384h213q17 0 29.5 12
t12.5 29.5t-12.5 29.5t-29.5 12h-213q-17 0 -29.5 -12t-12.5 -29.5t12.5 -29.5t29.5 -12zM620 121q-28 11 -43.5 25t-23 30t-8.5 31.5t2 30.5q4 25 16 36q11 9 31 25q8 7 14.5 20t11.5 26q5 15 10 32q10 3 19 11q8 7 15 20q6 12 8 33q2 16 -0.5 27t-6.5 18q-4 8 -11 13
q0 42 -5 82q-5 36 -17 74q-12 39 -38 71q-11 14 -30.5 28t-44.5 25t-54 18q-29 6 -58 6q-23 0 -48 -3.5t-49 -13.5q-25 -10 -48.5 -27.5t-42.5 -45.5q-21 -29 -32 -66.5t-15 -69.5q-5 -38 -4 -76q-9 -11 -13 -22q-4 -10 -5.5 -24t4.5 -31q5 -17 12.5 -26t12.5 -14
q8 -5 15 -7q5 -19 10 -32q5 -14 11 -26.5t14 -19.5q17 -14 31 -27q14 -14 16 -37q1 -16 1 -29t-5 -25t-16 -24.5t-32 -25.5q-27 -17 -63 -26q-34 -9 -67 -20q-33 -12 -57.5 -31.5t-30.5 -56.5q-10 -66 -4.5 -107t16.5 -49q6 -5 29 -10q22 -5 56 -10q33 -5 74 -10t82 -8
q45 -4 80 -6q38 -2 67.5 -2t69.5 2q36 2 83 6q44 4 86 9q23 2 45 6v281q-7 2 -15 4q-29 8 -55 18z" />
    <glyph glyph-name="uniE645" unicode="&#xe645;" horiz-adv-x="1025" 
d="M925 669h-828q-4 0 -10.5 -1t-23 -7t-29.5 -15.5t-23.5 -28t-10.5 -43.5v-570q0 -21 8 -36.5t16.5 -22.5t22 -10.5t17.5 -3.5h7h881q18 0 32 7.5t21 18t11.5 21t6.5 17.5l1 8v476h-954v70q1 2 1.5 5t3 11.5t7.5 15t14.5 11.5t21.5 6h787q2 0 5 -0.5t11 -3t14 -7.5
t11 -14.5t5 -22.5v-71h73v92v3q0 3 -0.5 9.5t-1.5 13t-4 15.5t-7.5 16.5t-12 15t-17.5 13t-24.5 9t-31.5 3.5zM71 383l879 -1l2 -331q1 -47 -38 -48h-10h-785q-21 0 -33 12t-13 24l-2 12v332zM197 131q23 -24 66 -26h1q61 1 81 37l1 2v72h-94v-36h55v-24q-13 -15 -43 -16
q-47 4 -50 59q4 54 47 59q34 0 45 -28l3 -7l38 15l-3 6q-20 50 -83 51h-1q-41 -3 -64 -27q-22 -24 -24 -68v-1q2 -44 25 -68zM389.5 131q22.5 -24 65.5 -26h1q42 2 65 26t25 67v1q-3 45 -25 69q-23 24 -64 27h-1q-43 -3 -66 -27t-25 -69v-1q2 -43 24.5 -67zM455 258
q45 -4 48 -59q-3 -56 -48 -59q-46 4 -48 59q3 55 48 59zM687 142h-90v150h-40v-184h130v34zM773 108q45 0 68 23t22 69q-1 45 -24.5 68t-69.5 24h-64v-184h65h3zM745 142v114h23q52 -1 53 -56q0 -58 -53 -58h-23z" />
    <glyph glyph-name="uniE646" unicode="&#xe646;" 
d="M513.5 551q-53.5 0 -91.5 -35.5t-38 -86.5h258q0 51 -37.5 86.5t-91 35.5zM470 197v-93h86v93q43 24 43 70q0 33 -25 57t-60.5 24t-61 -24t-25.5 -57q0 -46 43 -70zM728 23h-430q-18 0 -30.5 12t-12.5 29v325q0 17 12.5 28.5t30.5 11.5h43q0 68 50.5 115.5t122 47.5
t121.5 -47.5t50 -115.5h43q18 0 30.5 -11.5t12.5 -28.5v-325q0 -17 -12.5 -29t-30.5 -12zM512.5 757q-91.5 0 -175 -36t-143.5 -97.5t-96 -146.5t-36 -177.5t36 -177.5t96 -146t143.5 -97.5t175 -36.5t174.5 36.5t143.5 97.5t96 146t35.5 177.5t-35.5 177.5t-96 146.5
t-143.5 97.5t-174.5 36zM512 -212q-102 0 -195 40.5t-160.5 109t-107.5 163.5t-40 198.5t40 198.5t107.5 163.5t160.5 109t195 40.5t195.5 -40.5t160.5 -109t107 -163.5t40 -198.5t-40 -198.5t-107 -163.5t-160.5 -109t-195.5 -40.5z" />
    <glyph glyph-name="uniE647" unicode="&#xe647;" 
d="M1025 455q0 122 -85.5 218.5t-221.5 135.5l-2 1h-1q-2 0 -3.5 0.5t-3.5 0.5h-6q-17 0 -29.5 -11.5t-12.5 -26.5q0 -16 12 -27.5t30 -11.5q5 0 6 2v-2q97 -36 156 -111t59 -168q0 -107 -80 -192l-34 35l-46 -171h210l-70 73q122 110 122 255zM323 176h-7v1
q-95 36 -153.5 112t-58.5 168q0 107 80 192l34 -35l46 170h-211l70 -73q-58 -51 -90.5 -116.5t-32.5 -137.5q0 -121 85.5 -218t220.5 -136q1 0 2 -0.5t2 -0.5t3 -1t3 -1h7q17 0 29.5 11.5t12.5 27.5q0 15 -12.5 26t-29.5 11zM512 588q22 0 37.5 -14t15.5 -34t-15.5 -34.5
t-37.5 -14.5t-37 14.5t-15 34.5t15.5 34t36.5 14zM749 442q0 91 -69.5 154.5t-167.5 63.5t-167.5 -63.5t-69.5 -154.5q0 -77 52 -136.5t133 -75.5v-442h52l80 93v53l-53 23l53 24v46l-80 52l80 73v86q70 22 113.5 78t43.5 126z" />
    <glyph glyph-name="uniE648" unicode="&#xe648;" 
d="M607 385h113v-101h-149v-44h149v-102h-149v-123h-117v123h-155v102h155v44h-155v101h117l-161 277h134q102 -189 125 -236l127 236h128zM967 669q-64 0 -103 39t-39 103l-313 -28l-312 28q0 -64 -39 -103t-103 -39q-36 -408 205 -685q108 -124 237 -190l12 -6
q7 3 18.5 8.5t45.5 27.5t67 47.5t77 69t81 92t73 117.5t59 144t33 172.5t1 202.5z" />
    <glyph glyph-name="uniE649" unicode="&#xe649;" 
d="M167 117q0 -13 9 -20.5t23 -7.5h237q13 0 22.5 8.5t9.5 19.5v46h-301v-46zM320 145q10 0 16.5 -6.5t6.5 -17t-6.5 -17t-17 -6.5t-16.5 6.5t-6 17.5q-4 9 3.5 16t19.5 7zM171 525h288v-325h-288v325zM936 668h-853q-34 0 -58.5 -30t-24.5 -72v-532q0 -42 24.5 -72
t58.5 -30h858q34 0 58.5 30t24.5 72v532q-4 43 -29 72.5t-59 29.5zM505 112q0 -27 -18.5 -46t-46.5 -19h-245q-28 0 -46.5 19t-18.5 46v390q0 27 18.5 45.5t46.5 18.5h245q28 0 46.5 -18.5t18.5 -45.5v-390zM908 154h-315q-10 0 -16.5 6.5t-6.5 17t6.5 16.5t16.5 6h315
q11 0 17 -6t6 -17q0 -7 -8 -15t-15 -8zM908 275h-315q-10 0 -16.5 6t-6.5 16.5t6.5 17t16.5 6.5h315q11 0 17 -6.5t6 -16.5t-7.5 -16.5t-15.5 -6.5zM908 400h-315q-10 0 -16.5 6t-6.5 17q0 7 6.5 12.5t16.5 5.5h315q11 0 17 -6t6 -17q0 -7 -8 -12.5t-15 -5.5z" />
    <glyph glyph-name="uniE64A" unicode="&#xe64a;" 
d="M512 198q-66 0 -112 50l59 64h-159v-172l62 67q62 -67 150 -67q67 0 121 41.5t77 107.5l-50 20q-17 -49 -57.5 -80t-90.5 -31zM661 532q-62 68 -149 68q-67 0 -121 -41.5t-77 -107.5l49 -21q17 50 57.5 81t91.5 31q65 0 112 -50l-60 -65h159v173zM256 684h512v-640h-512
v640zM512.5 -148q-26.5 0 -45.5 18.5t-19 45t19 45.5t45.5 19t45 -19t18.5 -45.5t-18.5 -45t-45 -18.5zM384 764h256v-32h-256v32zM736 812h-448q-39 0 -67.5 -28.5t-28.5 -67.5v-832q0 -40 28.5 -68t67.5 -28h448q40 0 68 28t28 68v832q0 39 -28 67.5t-68 28.5z" />
    <glyph glyph-name="uniE64B" unicode="&#xe64b;" 
d="M832 812h-640q-79 0 -135.5 -56.5t-56.5 -135.5v-640q0 -79 56.5 -135.5t135.5 -56.5h640q79 0 135.5 56.5t56.5 135.5v640q0 79 -56.5 135.5t-135.5 56.5zM659 626q45 -28 85 -60l-29 -37q-31 26 -83 62zM189 442q111 72 193 183l39 -27q-39 -52 -74 -87v-168h-48v123
q-41 -36 -93 -70q-6 25 -17 46zM779 -25q-112 49 -265 106q-52 -73 -263 -109q-13 24 -30 50q220 24 257 99q17 31 15 120h49q0 -79 -9 -117q142 -49 272 -102zM819 366q-17 -53 -72 -48v-221h-48v176h-358v-183h-48v229h441q-113 24 -179 138l-166 -13l-5 45l154 11
q-21 56 -28 117l48 6q10 -69 29 -120l239 18l4 -45l-222 -16q40 -63 109 -88q50 -19 59 21q7 32 10 65q26 -12 48 -19q-6 -41 -15 -73z" />
    <glyph glyph-name="uniE64C" unicode="&#xe64c;" horiz-adv-x="1025" 
d="M303 147h205q10 0 13 -1q13 -4 20 -16q8 -12 5 -22q-5 -23 -25 -29q-3 -1 -17 -1h-186q-21 0 -28 4q-8 6 -14 16.5t-2 22.5q2 7 7 14q5 6 14 10q2 0 4.5 0.5t3.5 1.5zM778 152q-2 0 -6.5 -0.5t-6.5 -1.5q-16 -4 -21 -6q-42 -18 -60 -62q-1 -1 -6 -21q-5 -21 3 -44
q5 -16 6 -18q16 -36 53 -53q11 -4 25 -8q2 0 6.5 -0.5t6.5 -0.5q8 -2 14 -1q1 1 4 1h5q20 5 22 6q44 18 61 59q3 5 7 22q1 2 1 6.5t1 6.5q2 11 -1 21q-5 21 -8 28q-21 49 -79 64q-6 2 -27 2zM776 221q58 1 103 -27q34 -22 55 -56q9 -13 11 -19q1 -2 2.5 -6.5t2.5 -6.5
q8 -18 11 -43t-2 -49q-1 -2 -1.5 -7.5t-1.5 -8.5q-9 -28 -15 -36q-3 -6 -13 -21q4 0 8.5 -2.5t6.5 -4t7 -6.5l5 -6l45 -44q1 -2 5 -5.5t6.5 -6t5.5 -6t4 -7.5q5 -11 2 -22.5t-10.5 -17t-14.5 -7.5q-14 -4 -27 5q-2 1 -10 9l-18 18l-33 33q-2 2 -5.5 5t-6 5.5t-4.5 5.5
q-3 4 -5 9l-1 2v3q-1 -1 -9 -6q-11 -7 -19 -10q-14 -7 -29 -11q-4 -2 -11.5 -3t-10.5 -2h-8q-5 0 -7 -1q-9 -2 -18 0h-4q-3 0 -5 1q-4 0 -13.5 1.5t-14.5 3.5q-19 6 -30 11q-10 4 -28 17q-45 32 -64 88q0 1 -7 30q-1 3 -1 8v7q-3 13 1 27q0 3 0.5 7.5t0.5 7.5q8 28 11 36
q29 65 94 94q9 4 39 11q7 1 16 2h3q2 0 2 1zM303 351h366h22q14 -4 21 -16t5 -23q-5 -21 -23 -28q-5 -1 -29 -1h-335q-29 0 -31 1q-20 6 -25 28q-2 7 0 14q2 6 4 10q6 9 16 13q1 0 4 1t5 1zM303 556h366q20 0 22 -1q14 -4 21 -16q7 -11 5 -22q-5 -22 -23 -28q-5 -1 -29 -1
h-335q-29 0 -31 1q-20 5 -25 28q-2 7 0 14q2 6 4 10q6 8 16 13q1 0 4 0.5t5 1.5zM94 795h752q22 0 29 -2q24 -7 45 -23q4 -2 8 -7q0 -1 1 -2t2 -1q8 -11 9 -12q9 -14 15 -41q1 -3 1 -24v-370q-2 -9 -4 -12q-7 -11 -18 -15q-13 -6 -25 -0.5t-18 15.5q-2 3 -3 10t-1 13v15v13
v321q0 30 -7 40q-3 4 -4 5q-8 6 -18 8q-6 1 -13 1h-732q-10 0 -11 -1h-4h-4q-13 -4 -19 -14q-7 -9 -7 -53v-686q0 -36 2 -41q4 -11 13 -18q9 -6 41 -6h408q15 0 16 -1q8 -2 15 -7t10.5 -16t-0.5 -23q-6 -14 -19 -19q-5 -2 -46 -2h-385q-35 0 -43 2q-52 14 -72 60
q-3 7 -4.5 14t-2.5 18t-1 16v20v19v712q1 2 1 5.5t1 4.5q4 17 7 24q16 36 56 53q4 2 19 6h5q4 0 5 1z" />
    <glyph glyph-name="uniE64D" unicode="&#xe64d;" 
d="M0 577v-64h1025v64q0 27 -19 45.5t-45 18.5h-897q-27 0 -45.5 -18.5t-18.5 -45.5zM171 300h512v-43h-512v43zM171 172h341v-43h-341v43zM0 428v-406q0 -26 18.5 -45t45.5 -19h897q26 0 45 19t19 45v406h-1025z" />
    <glyph glyph-name="uniE64E" unicode="&#xe64e;" 
d="M825 -13h-85v-85q0 -12 -8.5 -20.5t-20.5 -8.5t-20 8.5t-8 20.5v85h-85q-12 0 -20.5 8.5t-8.5 20t8.5 20t20.5 8.5h85v85q0 12 8 20t20 8t20.5 -8t8.5 -20v-85h85q12 0 20 -8.5t8 -20t-8 -20t-20 -8.5zM711.5 243q-94.5 0 -161 -66.5t-66.5 -161t66.5 -161t161 -66.5
t161 66.5t66.5 161t-66.5 161t-161 66.5zM914 786q-25 25 -61 25h-681q-36 0 -61 -25t-25 -60v-853q0 -35 25 -60t61 -25h258h3q17 0 30 12.5t13 30t-13 30t-30 12.5h-223q-16 0 -27 11.5t-11 27.5v775q0 16 11 27.5t27 11.5h605q16 0 27 -11.5t11 -27.5v-393
q0 -18 12.5 -30.5t30.5 -12.5t30.5 12.5t12.5 30.5v432q0 35 -25 60zM299 342h427q17 0 29.5 12.5t12.5 30t-12.5 30t-29.5 12.5h-427q-18 0 -30.5 -12.5t-12.5 -30t12.5 -30t30.5 -12.5zM299 513h427q17 0 29.5 12.5t12.5 30t-12.5 30t-29.5 12.5h-427q-18 0 -30.5 -12.5
t-12.5 -30t12.5 -30t30.5 -12.5z" />
    <glyph glyph-name="uniE64F" unicode="&#xe64f;" horiz-adv-x="1025" 
d="M512 -212q-104 0 -199 40.5t-163.5 109t-109 163.5t-40.5 199t40.5 199t109 163.5t163.5 109t199 40.5t199 -40.5t163.5 -109t109 -163.5t40.5 -199t-40.5 -199t-109 -163.5t-163.5 -109t-199 -40.5zM512 761q-94 0 -179 -36.5t-147 -98.5t-98.5 -147t-36.5 -179
t36.5 -179t98.5 -147t147 -98.5t179 -36.5t179 36.5t147 98.5t98.5 147t36.5 179t-36.5 179t-98.5 147t-147 98.5t-179 36.5zM538 -7h-52v153h-179v52h179v76h-179v52h154l-77 256h51l77 -256l102 256h52l-103 -256h154v-52h-179v-76h179v-52h-179v-153z" />
    <glyph glyph-name="uniE650" unicode="&#xe650;" horiz-adv-x="1025" 
d="M512 -212q-111 0 -209 45.5t-170 125.5h123l136 226l35 -141h170l186 248l169 -116l-46 414l-402 -104l167 -116l-116 -155l-43 170h-171l-146 -243l-24 73h-164q-7 43 -7 85q0 104 40.5 199t109 163.5t163.5 109t199 40.5t199 -40.5t163.5 -109t109 -163.5t40.5 -199
t-40.5 -199t-109 -163.5t-163.5 -109t-199 -40.5zM512 -212z" />
    <glyph glyph-name="uniE651" unicode="&#xe651;" 
d="M683 436h141v136q0 99 -72 169.5t-174 70.5h-118q-101 0 -173.5 -70.5t-72.5 -169.5v-136h142v136q0 42 30.5 72t73.5 30h118q43 0 73.5 -30t31.5 -72v-136zM158 405v-315q0 -125 90.5 -213.5t218.5 -88.5h90q128 0 218.5 88.5t90.5 213.5v315h-708zM540 119v-159h-55
v159q-23 8 -36.5 28t-13.5 44q0 32 22.5 54.5t54.5 22.5t54.5 -22.5t22.5 -54.5q0 -24 -13.5 -44t-35.5 -28zM540 119z" />
    <glyph glyph-name="uniE652" unicode="&#xe652;" 
d="M306.5 607q-27.5 0 -47.5 19.5t-20 47.5v70q0 28 20 47.5t47.5 19.5t47.5 -19.5t20 -47.5v-70q0 -28 -20 -47.5t-47.5 -19.5zM716 607q-28 0 -47.5 19.5t-19.5 47.5v70q0 28 19.5 47.5t47.5 19.5t47.5 -19.5t19.5 -47.5v-70q0 -28 -19.5 -47.5t-47.5 -19.5zM717 61h102
v-102h-102v102zM717 231h102v-102h-102v102zM717 402h102v-102h-102v102zM546 61h103v-102h-103v102zM546 231h103v-102h-103v102zM546 402h103v-102h-103v102zM376 61h102v-102h-102v102zM376 231h102v-102h-102v102zM376 402h102v-102h-102v102zM205 61h103v-102h-103v102
zM205 231h103v-102h-103v102zM205 402h103v-102h-103v102zM137 -110h750v580h-750v-580zM922 -212h-819q-26 0 -47 35.5t-21 66.5v751q0 28 20 48t48 20h102v-34q0 -43 30 -72.5t72.5 -29.5t72.5 29.5t30 72.5v34h205v-34q0 -43 30 -72.5t72 -29.5t72 29.5t30 72.5v34h103
q28 0 48 -20t20 -48v-751q0 -31 -21 -66.5t-47 -35.5z" />
    <glyph glyph-name="uniE653" unicode="&#xe653;" horiz-adv-x="1025" 
d="M862 -147q-5 0 -8.5 4t-3.5 9v763q0 5 -3.5 9t-7.5 4h-71q-5 0 -8 -4t-3 -9v-763q0 -5 -3.5 -9t-8.5 -4h-102q-4 0 -7.5 4t-3.5 9v931q0 5 -3.5 8.5t-8.5 3.5h-70q-5 0 -8.5 -3.5t-3.5 -8.5v-931q0 -5 -3.5 -9t-8.5 -4h-103q-5 0 -8.5 4t-3.5 9v616q0 6 -3 9.5t-8 3.5
h-70q-5 0 -8.5 -3.5t-3.5 -9.5v-616q0 -5 -3.5 -9t-8.5 -4h-71q-5 0 -8.5 4t-3.5 9v460q0 6 -3.5 9.5t-8.5 3.5h-70q-5 0 -8.5 -3.5t-3.5 -9.5v-460q0 -5 -3 -9t-8 -4h-106q-5 0 -8.5 -3.5t-3.5 -8.5v-38q0 -5 3.5 -8.5t8.5 -3.5h1000q5 0 8.5 3.5t3.5 8.5v38q0 5 -3.5 8.5
t-8.5 3.5h-150v0zM862 -147z" />
    <glyph glyph-name="uniE654" unicode="&#xe654;" 
d="M522 290v277q0 3 -2 7q-5 12 -17 12q-5 0 -9 -3q-6 -4 -8 -9q-2 -4 -2 -7v-293l155 -158q5 -5 13 -5t13.5 5.5t5.5 13.5t-6 13zM227 -104q-1 1 -4 3q-5 3 -9 3q-5 0 -11 -4q0 -1 -0.5 -1t-1.5 -1l-71 -73l-3 -3q-6 -5 -6 -13t5.5 -13.5t13.5 -5.5v0h1h1q7 1 11 6l50 50
l24 25l1 1v1q11 13 -1 25zM55 531q11 27 27 56q7 13 14 24q20 29 45 54q35 35 80 62t67 35t39 12h2q4 1 7 3q10 7 8 20q-1 3 -3 6q0 1 -1 1v1l-3 3q-1 1 -3 2t-3 1t-3 1h-1h-1h-4q-58 -12 -123 -52q-127 -77 -179 -216q-2 -5 0 -12q3 -9 11 -12q1 -1 5 -1h2v0q8 0 14 7z
M897 -180l-74 76q-3 3 -6 4.5t-7 1.5q-5 0 -10 -3q-3 -2 -3.5 -2.5t-1.5 -2.5v-1q-2 -3 -3 -4q-2 -7 1 -13q1 -4 4 -7l37 -38l37 -37q5 -5 12 -6h1v0q8 0 13 6v0q1 0 1.5 0.5t0.5 1.5q2 3 3 6q3 11 -5 18zM1003 544q-56 152 -201 229q-55 29 -100 39h-4h-1h-1q-2 -1 -3 -1
t-3 -1.5t-3 -1.5l-3 -3v-1q-1 0 -1 -1q-2 -3 -3 -6q-1 -8 3 -14.5t12 -8.5l4 -1q19 -5 43 -14t70.5 -38t82.5 -68q16 -18 32 -42q8 -11 15 -24q16 -29 27 -56l3 -5q6 -7 14 -7v0h1h1q4 0 5 1q5 2 9 8q5 8 1 16zM857 589q-63 78 -153 122t-192 44t-192 -44t-152 -122
q-2 -2 -5 -6t-4 -5q-107 -128 -107 -295q0 -93 36.5 -178.5t98 -147t146.5 -98t179 -36.5t179 36.5t146.5 98t98 147t36.5 178.5q0 166 -105 293q-2 1 -5 6t-5 7zM512 -106q-106 0 -195.5 52t-141.5 142t-52 195.5t52 195t141.5 141.5t195 52t195.5 -52t142 -141.5t52 -195
t-52 -195.5t-142 -142t-195 -52zM512 -106z" />
    <glyph glyph-name="uniE655" unicode="&#xe655;" 
d="M513 129q-27 -38 -62.5 -73t-84.5 -62v135h147zM366 617h-98v48h49v147h390v-147h49v-48h-98v97h-292v-97zM902 568q41 0 69 -28.5t28 -69.5v-584q0 -41 -28 -69.5t-69 -28.5h-780q-41 0 -69 28.5t-28 69.5v584q0 41 28 69.5t69 28.5h780zM804 177h-195v50h147v195h-293
v-195h98v-50h-195v146q13 30 17 61t13 62l-60 16q-36 -140 -103 -255q1 -3 3 -15q2 -11 4 -24t4.5 -24.5t2.5 -14.5q6 10 15.5 22.5t20 27t19.5 26.5t15 22v-293h49v60q7 -5 22 -24t27 -36q49 27 84 62.5t62 84.5v-147h48v147q21 -43 60 -80.5t90 -66.5q1 1 8 12.5t15 23.5
t14.5 22.5t7.5 13.5q-50 24 -87 56.5t-59 66.5h146v48zM707 276h-194v96h194v-96z" />
    <glyph glyph-name="uniE656" unicode="&#xe656;" 
d="M946 300q0 89 -35 170t-93.5 139.5t-139.5 93.5t-170 35t-170 -35t-139.5 -93.5t-93 -139.5t-34.5 -170t34.5 -170t93 -139.5t139.5 -93.5t170 -35t170 35t139.5 93.5t93.5 139.5t35 170zM880 300q0 -101 -49.5 -187t-135.5 -135.5t-187 -49.5t-186.5 49.5t-135.5 135.5
t-50 187t50 186.5t135.5 135.5t186.5 50t187 -50t135.5 -135.5t49.5 -186.5zM467 159h83v-77h-83v77zM550 515v-314h-83v314h83z" />
    <glyph glyph-name="uniE657" unicode="&#xe657;" 
d="M844 752h-61q-13 0 -24 -7.5t-11 -19.5t11.5 -22.5t23.5 -10.5h61q26 0 43 -17t17 -43v-693q0 -27 -17 -43.5t-43 -16.5h-648q-29 0 -52.5 17t-23.5 43v693q0 26 17 43t43 17h76q23 0 23 33q0 27 -23 27h-76q-60 0 -90 -33.5t-30 -88.5v-685q0 -57 33.5 -91.5t93.5 -34.5
h650q62 0 94.5 32t32.5 94v685q0 54 -32 88t-88 34zM256 480.5q0 -12.5 9 -21.5t22 -9h452q12 0 21 9t9 21.5t-9 21.5t-21 9h-452q-13 0 -22 -9t-9 -21.5zM737 345h-450q-13 0 -22 -9t-9 -21.5t9 -22t22 -9.5h452q12 0 21 9.5t9 21.5q-1 13 -10 22t-22 9zM737 164h-450
q-13 0 -22 -9t-9 -21.5t9 -21.5t22 -9h452q12 0 21 9t9 22q-1 13 -10 21.5t-22 8.5zM408 676h210q18 0 31.5 16t13.5 37t-13.5 36.5t-32.5 15.5h-209q-19 0 -32.5 -15.5t-13.5 -36.5t13.5 -37t32.5 -16z" />
    <glyph glyph-name="uniE658" unicode="&#xe658;" horiz-adv-x="1025" 
d="M1000 487q-22 45 -63 77t-90 46.5t-106 20.5t-109 0l-96 165l-1 1q-4 7 -10 11h-1q-6 3 -14 4h-1h-304h-1h-1q-8 -1 -14 -4q-6 -4 -11 -11v-1h-1l-151 -263v-1h-1q-4 -8 -4 -15t4 -14l1 -1v-1l91 -158q-5 -4 -6 -5q-80 -102 -103 -206.5t17 -187.5q47 -100 165 -137
q60 -19 131 -19q171 0 349 100q79 44 145 102.5t111 121.5t71.5 130t26.5 128.5t-24 116.5zM508 319l-68 118q-6 12 -19 15t-24.5 -3.5t-15 -19t3.5 -24.5l68 -118h-192l68 118q7 12 3.5 24.5t-15 19t-24.5 3.5t-20 -15l-68 -118l-96 166h136q14 0 23.5 9.5t9.5 23
t-9.5 22.5t-23.5 9h-136l96 167l68 -118q10 -16 28 -16q9 0 16 4q12 7 15.5 19.5t-3.5 24.5l-68 118h192l-68 -118q-7 -12 -3.5 -24.5t14.5 -19.5q8 -4 16 -4q19 0 28 16l69 118l96 -167h-137q-13 0 -22.5 -9t-9.5 -22.5t9.5 -23t22.5 -9.5h137zM639 -56
q-114 -64 -227.5 -84t-202.5 8q-91 29 -127 103q-29 64 -11 146t80 167l26 -45q1 0 1 -1q5 -7 11 -11q8 -4 16 -4h303h1q8 0 16 4q6 4 10 11h1v1l152 262v1v1q4 7 4 14t-4 15v1l-21 36q101 5 175 -24.5t100 -84.5q20 -47 19 -99t-26 -109.5t-66 -111.5t-100.5 -105.5
t-129.5 -90.5z" />
    <glyph glyph-name="uniE659" unicode="&#xe659;" 
d="M321 667h166q9 0 15.5 6.5t6.5 16.5v40q0 9 -6.5 15.5t-15.5 6.5h-53v30q0 12 -9 21t-21 9t-21 -9t-9 -21v-30h-53q-9 0 -15.5 -6.5t-6.5 -15.5v-40q0 -10 6.5 -16.5t15.5 -6.5zM691 713h-151v-43q0 -12 -8.5 -20.5t-20.5 -8.5h-214q-12 0 -20.5 8.5t-8.5 20.5v42l-151 1
q-23 0 -39.5 -16.5t-16.5 -39.5v-624q0 -24 16.5 -40t39.5 -16h374q-1 12 -1 23q0 75 40 139q-49 9 -75.5 21.5t-66.5 40.5q-52 -60 -174 -68q-12 39 -16 51q47 1 79.5 9t51.5 23.5t28 31.5t18 42h59q-9 -26 -19 -47q37 -28 70.5 -40.5t82.5 -17.5q74 74 179 75v397
q0 23 -16.5 39.5t-39.5 16.5zM543 328v-103h-59v74h-168v-74h-59v111h223q-25 7 -43 20.5t-24.5 24.5t-16 30.5t-13.5 26.5h-67v39l-2 -3q-2 -1 -3.5 -3.5t-3.5 -4.5v-111h-50v64q-15 -12 -59 -20v41q33 14 49.5 29t31.5 42q19 0 24.5 0.5t23.5 -0.5q-2 -6 -3.5 -12.5
t-2.5 -9.5t-1 -5h55l-5 28h60l4 -28h61q-3 11 -6 27h49q3 -21 3 -27h44v-46h-135q10 -26 20.5 -37.5t42.5 -22.5q35 -12 41 31h24h32q-7 -30 -27.5 -54t-39.5 -27zM720 104v-134h109v36h-73v98h-36zM962 16q-6 83 -67 140t-145 57q-88 0 -150 -62.5t-62 -150.5t62 -150
t150 -62q78 0 138 51l38 -39v146h-145l72 -73q-45 -36 -103 -36q-68 0 -116 48t-48 115.5t48 115.5t116 48q66 0 113.5 -46t50.5 -112v-6q0 -6 6 -6h37q6 0 6 6v12q0 2 -1 4z" />
    <glyph glyph-name="uniE65A" unicode="&#xe65a;" 
d="M410 635h204q11 0 19 8t8 19v49q0 12 -8 20t-19 8h-65v36q0 15 -11 26t-26 11t-26 -11t-11 -26v-36h-65q-11 0 -19 -8t-8 -20v-49q0 -11 8 -19t19 -8zM863 691h-184v-53q0 -14 -10.5 -24.5t-25.5 -10.5h-262q-15 0 -25.5 10.5t-10.5 24.5v52l-184 1q-29 0 -49 -20.5
t-20 -48.5v-765q0 -29 20 -49t49 -20h702q29 0 49 20t20 49v765q0 28 -20 48.5t-49 20.5zM715 -21q-88 12 -127.5 28.5t-94.5 55.5q-64 -74 -214 -84q-15 48 -20 63q47 1 82 8.5t57 18t38 28t24 34t16 41.5h72q-10 -32 -22 -57q49 -37 94 -52.5t115 -20.5zM682 218v-125h-72
v90h-206v-90h-73v136h274q-25 7 -43.5 17.5t-29.5 25t-18 26.5t-14.5 29t-13.5 26h-82v48q-1 -1 -2.5 -3t-4 -5t-4.5 -6v-136h-62v80q-17 -16 -72 -25q1 29 0 50q40 18 61 36t38 52q24 -1 30.5 -0.5t29.5 0.5q-3 -9 -5 -16.5t-3 -11.5t-2 -6h68l-6 34h74l4 -34h75
q-3 13 -7 34h60q3 -27 4 -34h54v-57h-165q11 -32 24.5 -45.5t52.5 -27.5q42 -15 50 38h29h40q-9 -37 -34.5 -66.5t-48.5 -33.5z" />
    <glyph glyph-name="uniE65B" unicode="&#xe65b;" 
d="M983 110h-432q-13 -48 -32 -76h464q16 0 27.5 11.5t11.5 27.5q0 15 -11.5 26t-27.5 11zM983 -5h-488q-33 -42 -90 -75h578q16 0 27.5 11.5t11.5 27.5q0 15 -11.5 25.5t-27.5 10.5zM264.5 449q-109.5 0 -187 -77.5t-77.5 -186.5t77.5 -187t187 -78t187 78t77.5 187
t-77.5 186.5t-187 77.5zM415 88h-134v-66h-31v66h-134v34h134v65h-134v34h93l-59 80l27 20l58 -80l-26 -20h111l-26 20l58 77l27 -19l-59 -78h93v-34h-132v-65h134v-34zM985 680h-606q-17 0 -28 -11.5t-11 -27.5t11 -27.5t28 -11.5h606q17 0 28 11.5t11 27.5t-11 27.5
t-28 11.5zM983 563h-607q-16 0 -27.5 -11t-11.5 -27.5t11.5 -27.5t27.5 -11h607q16 0 27.5 11t11.5 27.5t-11.5 27.5t-27.5 11zM983 224h-425q3 -13 3 -39q0 -25 -3 -39h425q16 0 27.5 11t11.5 27.5t-11.5 28t-27.5 11.5zM983 449h-578q52 -29 90 -75h488q16 0 27.5 11
t11.5 28q0 15 -11.5 25.5t-27.5 10.5zM983 338h-464q20 -34 32 -76h432q16 0 27.5 11.5t11.5 27.5q0 15 -11.5 26t-27.5 11z" />
    <glyph glyph-name="uniE65C" unicode="&#xe65c;" 
d="M419 223l-33 -45l15 -11l34 45zM379 147h75v20h-53h-64h-54v-20h78v-38h-78v-19h78v-38h18v38h77v19h-77v38zM410 635h204q11 0 19 8t8 19v49q0 12 -8 20t-19 8h-65v36q0 15 -11 26t-26 11t-26 -11t-11 -26v-36h-65q-11 0 -19 -8t-8 -20v-49q0 -11 8 -19t19 -8zM318 224
l-15 -11l34 -46l15 11zM863 691h-184v-53q0 -14 -10.5 -24.5t-25.5 -10.5h-262q-15 0 -25.5 10.5t-10.5 24.5v52l-184 1q-29 0 -49 -20.5t-20 -48.5v-765q0 -29 20 -49t49 -20h702q29 0 49 20t20 49v765q0 28 -20 48.5t-49 20.5zM216 145.5q0 63.5 45 108t108 44.5
t108 -44.5t45 -108t-45 -108t-108 -44.5t-108 44.5t-45 108zM784 -7h-334q33 19 52 43h282q9 0 16 -6t7 -15t-6.5 -15.5t-16.5 -6.5zM784 59h-268q11 16 18 43h250q9 0 16 -6t7 -15t-6.5 -15.5t-16.5 -6.5zM784 123h-245q1 9 1 23q0 15 -1 22h245q10 0 16.5 -6.5t6.5 -16
t-6.5 -16t-16.5 -6.5zM784 190h-250q-6 24 -18 44h268q9 0 16 -6.5t7 -14.5q0 -10 -6.5 -16.5t-16.5 -6.5zM784 255h-282q-22 26 -52 43h334q9 0 16 -6t7 -15t-6.5 -15.5t-16.5 -6.5zM784 320h-351q-9 0 -15.5 6.5t-6.5 15.5t6.5 15.5t15.5 6.5h351q10 0 16.5 -6.5
t6.5 -15.5t-6.5 -15.5t-16.5 -6.5zM786 387h-351q-10 0 -16.5 6.5t-6.5 16t6.5 16t16.5 6.5h351q9 0 15.5 -6.5t6.5 -16t-6.5 -16t-15.5 -6.5z" />
    <glyph glyph-name="uniE65D" unicode="&#xe65d;" 
d="M406 440q-15 0 -41.5 -18.5t-32.5 -31.5q27 -15 144 -36q-52 80 -70 86zM410 635h204q11 0 19 8t8 19v49q0 12 -8 20t-19 8h-65v36q0 15 -11 26t-26 11t-26 -11t-11 -26v-36h-65q-11 0 -19 -8t-8 -20v-49q0 -11 8 -19t19 -8zM618 440q-17 -5 -69 -86q118 21 144 37
q-5 11 -32.5 30t-42.5 19zM863 691h-184v-53q0 -14 -10.5 -24.5t-25.5 -10.5h-262q-15 0 -25.5 10.5t-10.5 24.5v52l-184 1q-29 0 -49 -20.5t-20 -48.5v-765q0 -29 20 -49t49 -20h702q29 0 49 20t20 49v765q0 28 -20 48.5t-49 20.5zM494 -14q0 -7 -5.5 -12.5t-12.5 -5.5
h-127q-8 0 -13.5 5.5t-5.5 12.5v109q0 8 5.5 13t13.5 5h127q7 0 12.5 -5t5.5 -13v-109v0zM494 168q0 -8 -5.5 -13t-12.5 -5h-127q-8 0 -13.5 5t-5.5 13v109q0 7 5.5 12.5t13.5 5.5h127q7 0 12.5 -5.5t5.5 -12.5v-109zM694 -14q0 -7 -5.5 -12.5t-12.5 -5.5h-128
q-7 0 -12.5 5.5t-5.5 12.5v109q0 8 5.5 13t12.5 5h128q7 0 12.5 -5t5.5 -13v-109zM694 168q0 -8 -5.5 -13t-12.5 -5h-128q-7 0 -12.5 5t-5.5 13v109q0 7 5.5 12.5t12.5 5.5h128q7 0 12.5 -5.5t5.5 -12.5v-109zM729 379q-1 -5 -3.5 -8t-14.5 -10.5t-33 -14.5t-63 -16
t-100 -19h-3h-3q-58 10 -100 19t-63 16t-33 14.5t-14.5 10.5t-3.5 8q-5 18 12 39q16 21 46.5 40t52.5 19q2 0 4 -1q34 -3 102 -112q68 109 102 112q2 1 4 1q22 0 52.5 -19t46.5 -40q17 -21 12 -39z" />
    <glyph glyph-name="uniE65E" unicode="&#xe65e;" 
d="M512 812q-139 0 -257 -68.5t-186.5 -186.5t-68.5 -257t68.5 -257t186.5 -186.5t257 -68.5t257 68.5t186.5 186.5t68.5 257t-68.5 257t-186.5 186.5t-257 68.5zM732 92l-217 -129v-6l218 130q-2 -5 -4.5 -12.5t-11.5 -28.5t-20.5 -38.5t-30 -36.5t-39.5 -28t-50.5 -7
t-61.5 19v-91h-20v158q-46 -25 -82 -18t-61 29t-41 51.5t-23.5 49t-7.5 21.5l215 -128v6l-215 127q4 1 10.5 2.5t26.5 3t38 1.5t41.5 -4.5t42 -14t34.5 -28t22 -44.5v116q-108 4 -184 82.5t-76 187.5q0 112 79 191t190.5 79t191 -79t79.5 -191q0 -109 -76 -187.5t-184 -82.5
v-199q6 41 31 65.5t55 32t61 8t49.5 -2.5t20.5 -4zM490.5 642q-83.5 0 -142.5 -59t-59 -142.5t59 -142t142.5 -58.5t142.5 58.5t59 142t-59 142.5t-142.5 59zM614 361h-111v-54h-26v54h-110v28h110v54h-110v28h76l-48 66l22 16l48 -66l-22 -16h93l-22 16l48 64l22 -16
l-48 -64h76v-28h-109v-54h111v-28z" />
    <glyph glyph-name="uniE65F" unicode="&#xe65f;" 
d="M724 385q-124 0 -211.5 -87.5t-87.5 -211t87.5 -211t211.5 -87.5t211.5 87.5t87.5 211t-87.5 211t-211.5 87.5zM724 -143q-95 0 -162.5 67.5t-67.5 162.5t67.5 162.5t162.5 67.5t162.5 -67.5t67.5 -162.5t-67.5 -162.5t-162.5 -67.5zM171 114v-51h200q-1 13 -1 24
q0 12 1 27h-200zM428 -107h-325q-14 0 -24 10t-10 24v782q0 14 10 24t24 10h715q14 0 24 -10t10 -24v-292q36 -14 68 -35v354q0 32 -22.5 54t-53.5 22h-767q-31 0 -53.5 -22t-22.5 -54v-836q0 -31 22.5 -53.5t53.5 -22.5h410q-34 31 -59 69zM750 573h-579v-51h579v51z
M481 343h-310v-51h265q20 28 45 51zM793 230l-69 -93l-69 93h-45l69 -93h-69v-39h95v-38h-95v-39h95v-105h38v105h95v39h-95v38h95v39h-69l69 93h-45z" />
    <glyph glyph-name="uniE660" unicode="&#xe660;" 
d="M614 739h-65v36q0 15 -11 26t-26 11t-26 -11t-11 -26v-36h-65q-11 0 -19 -8t-8 -20v-49q0 -11 8 -19t19 -8h204q11 0 19 8t8 19v49q0 12 -8 20t-19 8zM863 691h-184v-53q0 -14 -10.5 -24.5t-25.5 -10.5h-262q-15 0 -25.5 10.5t-10.5 24.5v52l-184 1q-29 0 -49 -20.5
t-20 -48.5v-765q0 -29 20 -49t49 -20h702q29 0 49 20t20 49v765q0 28 -20 48.5t-49 20.5zM668 145q16 0 26.5 -10.5t10.5 -26t-10.5 -26t-26.5 -10.5h-120v-101q0 -15 -10.5 -26t-26 -11t-26 11t-10.5 26v101h-119q-16 0 -26.5 10.5t-10.5 26t10.5 26t26.5 10.5h119v31h-119
q-16 0 -26.5 11t-10.5 26t10.5 26t26.5 11h107l-112 126q-10 11 -9 26.5t12.5 25.5t26.5 9t25 -12l105 -119l106 119q10 11 25 12t26.5 -9t12 -25.5t-9.5 -26.5l-112 -126h109q16 0 26.5 -11t10.5 -26t-10.5 -26t-26.5 -11h-120v-31h120z" />
    <glyph glyph-name="uniE661" unicode="&#xe661;" 
d="M814 -148h-601q-62 0 -106 44t-44 106v226q0 62 44 106t106 44v75q0 124 88 212t212.5 88t212.5 -88t88 -212v-75q62 0 106 -44t44 -106v-226q0 -62 -44 -106t-106 -44zM438 23v-58q0 -15 11 -26t27 -11h75q16 0 27 11t11 26v58q34 20 54.5 54.5t20.5 75.5q0 62 -44 106
t-106.5 44t-106.5 -44t-44 -106q0 -41 20.5 -75.5t54.5 -54.5zM664 453q0 56 -45 103t-106 47q-58 0 -104 -46t-46 -104v-75h301v75z" />
    <glyph glyph-name="uniE662" unicode="&#xe662;" 
d="M637 -147v540h135l-260 354l-261 -354h135v-540h251z" />
    <glyph glyph-name="uniE663" unicode="&#xe663;" 
d="M1004 -103h-40v581q0 2 -2 2h-129q-2 0 -2 -2v-581h-124v281q0 3 -2 3h-129q-2 0 -2 -3v-281h-124v410q0 2 -2 2h-129q-2 0 -2 -2v-410h-124v153q0 2 -2 2h-129q-2 0 -2 -2v-153h-40q-7 0 -12.5 -8t-5.5 -16t5 -13t13 -5h984q8 0 13 5t5 13t-5.5 16t-12.5 8zM937 634l2 8
l23 103l-170 -76l43 -34v-1v-1l-194 -231q-6 1 -12 1q-15 0 -27 -8q-2 1 -3 2l-171 85q-1 1 -3 1q-2 19 -15 33q-16 15 -38 15t-37 -15q-21 -21 -15 -50l-191 -193q-7 1 -14 1q-22 0 -37.5 -15.5t-15.5 -37.5t15.5 -37.5t37.5 -15.5t38 16q20 19 15 47l193 195q6 -1 11 -1
q15 0 28 7q1 0 2 -1l172 -86q1 0 2 -1q2 -19 15 -32q16 -16 38 -16t38 16q20 20 14 48l198 236h3l39 -32z" />
    <glyph glyph-name="uniE664" unicode="&#xe664;" 
d="M505 687q-108 0 -200 -53.5t-145.5 -145t-53.5 -200t53.5 -200t145.5 -145t200 -53.5t200 53.5t145 145t53 200t-53 200t-145 145t-200 53.5zM505 -65q-96 0 -177.5 47.5t-129 129t-47.5 177t47.5 177t129 129t177.5 47.5t177 -47.5t128.5 -129t47.5 -177t-47.5 -177
t-128.5 -129t-177 -47.5zM468 94h74v-74h-74v74zM659 349q-16 -29 -64 -71q-31 -28 -41 -41t-14.5 -30.5t-5.5 -56.5h-62v20q0 38 10 66q8 20 26 42q13 15 46.5 44.5t43.5 47.5t10 39q0 37 -29.5 66t-71.5 29t-69.5 -26t-36.5 -81l-66 8q9 73 53 112.5t117 39.5
q78 0 124 -42t46 -102q0 -35 -16 -64z" />
    <glyph glyph-name="uniE665" unicode="&#xe665;" 
d="M0 812v-1024h1024v1024h-1024zM415 -48l-322 368l84 98l236 -273l434 503l84 -98z" />
    <glyph glyph-name="uniE666" unicode="&#xe666;" 
d="M203 483h175v-175h-175v175zM425 483h175v-175h-175v175zM647 483h175v-175h-175v175zM203 228h175v-175h-175v175zM425 228h175v-175h-175v175zM859 782h-115v-54q0 -31 -21.5 -52.5t-52.5 -21.5h-4q-30 0 -51.5 21.5t-21.5 52.5v54h-161v-54q0 -31 -21.5 -52.5
t-51.5 -21.5h-5q-30 0 -51.5 21.5t-21.5 52.5v54h-115q-44 0 -75.5 -31.5t-31.5 -76.5v-692q0 -45 31.5 -76.5t75.5 -31.5h693q44 0 75.5 31.5t31.5 76.5v692q0 45 -31.5 76.5t-75.5 31.5zM896 -26q0 -8 -5.5 -13.5t-13.5 -5.5h-730q-7 0 -12.5 5.5t-5.5 13.5v583
q0 8 5.5 13t12.5 5h730q8 0 13.5 -5t5.5 -13v-583zM355 674h3q23 0 39 16t16 39v112q0 23 -16 39t-39 16h-3q-23 0 -39 -16t-16 -39v-112q0 -23 16 -39t39 -16zM666 674h3q23 0 39 16t16 39v112q0 23 -16 39t-39 16h-3q-23 0 -39 -16t-16 -39v-112q0 -23 16 -39t39 -16z" />
    <glyph glyph-name="uniE667" unicode="&#xe667;" 
d="M511 158q114 0 195 81t81 195.5t-81 195.5t-195 81t-195 -81t-81 -195.5t81 -195.5t195 -81zM512 121q-161 0 -285 -17.5t-165 -46.5h900q-41 29 -165 46.5t-285 17.5z" />
    <glyph glyph-name="uniE668" unicode="&#xe668;" 
d="M512 835q-92 0 -175.5 -36t-143.5 -96t-96 -143.5t-36 -175.5t36 -175.5t96 -143.5t143.5 -96t175.5 -36t175.5 36t143.5 96t96 143.5t36 175.5t-36 175.5t-96 143.5t-143.5 96t-175.5 36zM456 138q1 1 1 2q-10 -12 -23 0l-259 258q-6 6 -6 15t6 16l62 63q6 6 15.5 6
t15.5 -6l180 -180l310 316q6 6 15 6t15 -6l61 -61q6 -6 6 -15t-6 -15h1z" />
    <glyph glyph-name="uniE669" unicode="&#xe669;" 
d="M512 835q-92 0 -175.5 -36t-143.5 -96t-96 -143.5t-36 -175.5t36 -175.5t96 -143.5t143.5 -96t175.5 -36t175.5 36t143.5 96t96 143.5t36 175.5t-36 175.5t-96 143.5t-143.5 96t-175.5 36zM737 309h-450q-31 0 -53 22t-22 53t22 53t53 22h450q31 0 53 -22t22 -53t-22 -53
t-53 -22z" />
    <glyph glyph-name="uniE66A" unicode="&#xe66a;" 
d="M677 145q-76 -53 -168 -52q-12 0 -24 1q-2 0 -5.5 0.5t-4.5 0.5l-18 3q-2 0 -11 3q-11 2 -17 4q-2 1 -5 2l-3 1q-12 4 -20 7q-1 1 -4 2q-13 6 -22 11h-1q-36 20 -65 50q-1 0 -1 1q-9 9 -17 19q-1 1 -2 2.5t-2 1.5q-63 80 -63 182h67q3 0 4 2.5t0 5.5l-112 170
q-2 2 -4.5 2t-4.5 -2l-112 -170q-1 -3 0 -5.5t4 -2.5h67q0 -119 67 -217v-1l2 -2q2 -3 14 -18q4 -6 5 -7q8 -11 22 -24l1 -1q0 -1 1 -1q38 -39 85 -65q1 -1 2 -1q12 -7 28 -14q1 0 3.5 -1.5t3.5 -1.5q10 -4 24 -9l12 -4q7 -2 22 -6q13 -3 15 -3q1 0 3 -1t3 -1q4 0 21 -3h5
q2 0 3 -1q21 -2 38 -2q118 0 216 70q16 11 19 29.5t-7.5 34.5t-29 19t-34.5 -8zM891 384q0 119 -67 217v1q-1 2 -2 2q-5 8 -16 22l-1 1l-1 1q-58 72 -142 108l-2 1q-1 1 -2 1q-11 5 -27 10l-4 2q-4 1 -5 1q-10 3 -24 6q-12 3 -14 3q-1 1 -3 1.5t-3 0.5q-3 0 -6 0.5t-6.5 1
t-5.5 0.5q-1 0 -5.5 1t-7.5 1q-12 1 -30 1l-2 1h-3h-1q-119 -1 -216 -70q-16 -11 -19 -29.5t7.5 -34t29 -19t34.5 7.5q75 53 167 52q13 0 25 -1q2 0 4.5 -0.5t3.5 -0.5q12 -1 20 -3q1 0 9 -2l20 -5q1 0 3 -1t3 -1q11 -4 21 -8q1 0 1 -1h1q65 -28 109 -82v-1h1
q65 -81 65 -185h-67q-3 0 -4 -2.5t0 -4.5l112 -171q2 -2 4.5 -2t4.5 2l112 171q1 2 0 4.5t-4 2.5h-67v0z" />
    <glyph glyph-name="uniE66B" unicode="&#xe66b;" 
d="M512 835q-92 0 -175.5 -36t-143.5 -96t-96 -143.5t-36 -175.5t36 -175.5t96 -143.5t143.5 -96t175.5 -36t175.5 36t143.5 96t96 143.5t36 175.5t-36 175.5t-96 143.5t-143.5 96t-175.5 36zM568 120q0 -7 -5 -12.5t-12 -5.5h-78q-7 0 -12 5.5t-5 12.5v77q0 8 5 13t12 5h78
q7 0 12 -5t5 -13v-77zM568 345q0 -7 -5 -12t-12 -5h-78q-7 0 -12 5t-5 12v303q0 7 5 12.5t12 5.5h78q7 0 12 -5.5t5 -12.5v-303z" />
    <glyph glyph-name="uniE66C" unicode="&#xe66c;" horiz-adv-x="1025" 
d="M511 753h371q27 0 42 -2q99 -13 100 -112v-501q-1 -55 -34 -89t-87 -34q-413 -1 -784 0q-54 0 -86 32.5t-32 86.5q-2 250 0 499q0 119 121 120h389zM399 185q0 87 -1 94q-1 28 -21 50t-47 24q-72 6 -146 0q-26 -1 -43.5 -17t-21.5 -41q-3 -16 -4 -34t-1.5 -41.5
t-1.5 -34.5h287zM344 501q-1 36 -25.5 60.5t-61.5 24.5t-62 -25t-25 -62q0 -36 25.5 -61.5t61.5 -24.5q37 0 62 25.5t25 62.5zM682 297h135q38 0 40 30q1 34 -38 34q-139 1 -272 0q-39 0 -37 -35q1 -29 39 -29h133zM683 180v-1q122 0 135 1q38 0 39 30q0 14 -10 23t-27 10
q-123 0 -275 -1q-18 0 -25 -10q-13 -20 -7 -31q5 -7 14.5 -13.5t17.5 -6.5q19 -1 138 -1zM732 413h86q18 0 28.5 8t9.5 22q0 29 -37 30q-89 2 -178 0q-17 0 -27.5 -9.5t-8.5 -21.5q4 -30 38 -30q5 0 89 1z" />
    <glyph glyph-name="uniE66D" unicode="&#xe66d;" 
d="M512 705q-106 0 -181 -75t-75 -182q0 -39 20.5 -90.5t50 -97t59 -85t50.5 -62.5l21 -23q23 -27 55.5 -27t55.5 27q8 9 21.5 24.5t48 60.5t61 87t48 94.5t21.5 91.5q0 107 -75 182t-181 75zM512 338q-49 0 -84 34.5t-35 84t35 84t84 34.5t84 -34.5t35 -84t-35 -84
t-84 -34.5z" />
    <glyph glyph-name="uniE66E" unicode="&#xe66e;" horiz-adv-x="1025" 
d="M1009 432q-42 -109 -62 -160.5t-33.5 -80.5t-17.5 -32.5t-11 -3.5h-557q-14 0 -59.5 122t-79.5 231q-8 30 -38 30h-70q-31 0 -52 12t-26 28.5t0.5 33t27 28t52.5 11.5h153q31 0 51 -61q14 -39 54 -149t52 -145q14 -35 54 -35h347q19 0 29 8.5t16 26.5q11 29 33 83.5
t29 72.5q1 2 3.5 9t4 11.5t5 12.5t6.5 13.5t7.5 13t8.5 11.5l10 9q5 6 10.5 7t12.5 2.5t14 -2.5q36 -12 40.5 -35t-14.5 -72v0zM916 748q-32 -5 -63 -19t-53 -31t-39.5 -33.5t-25.5 -27.5l-9 -11q20 -17 42 -41q14 -15 14.5 -24t-8.5 -11.5t-28 -2.5l-194 -2q5 125 12 194
q5 47 36 14l35 -37q6 7 17 16.5t47 30.5t74 32.5t94.5 9t111.5 -27.5q10 -5 15 -10.5t5 -7.5l1 -2h-5h-9q-6 0 -15 -0.5t-23.5 -2.5t-31.5 -6v0zM467 123q35 0 62.5 -21t27.5 -52q0 -33 -28 -60.5t-62 -27.5t-62 27.5t-28 60.5q0 31 27.5 52t62.5 21v0zM762 123
q37 0 63.5 -20t26.5 -53q0 -35 -27 -61.5t-62.5 -26.5t-63 26.5t-27.5 61.5q0 33 26.5 53t63.5 20z" />
    <glyph glyph-name="uniE66F" unicode="&#xe66f;" horiz-adv-x="1025" 
d="M981 539q-9 1 -15.5 2t-13.5 -3.5t-11.5 -8t-10 -11.5t-9 -13.5t-7 -15t-5.5 -14.5l-5 -13q-3 -7 -4 -10q-8 -19 -29.5 -73t-32.5 -82q-5 -18 -14.5 -25.5t-29.5 -7.5h-347q-41 0 -53 33q-13 35 -53 147t-54 151q-21 63 -50 63h-153q-32 0 -53.5 -12t-27 -29t-0.5 -34.5
t26 -29.5t52 -12h71q29 0 37 -30q34 -109 79.5 -231.5t59.5 -122.5h557q10 0 17 10t31.5 71t70.5 193q24 50 19 72.5t-42 35.5zM464 499q1 0 3.5 3t6.5 7t10.5 10t18.5 14.5t27 18.5q25 19 57.5 31t60 15.5t51.5 4t37 -1.5l14 -1v-59q0 -31 12 -31.5t30 19.5l139 137
q-92 85 -146 128q-37 29 -35 -16l1 -50h-12q-8 0 -31.5 -4t-46 -11t-52.5 -22t-55 -35t-49.5 -53.5t-40.5 -74.5q-3 -11 -3 -18.5t2 -9.5zM467.5 122q-35.5 0 -63 -20.5t-27.5 -51.5q0 -33 28.5 -60.5t62 -27.5t62 27.5t28.5 60.5q0 31 -27.5 51.5t-63 20.5zM762.5 122
q-37.5 0 -64 -19.5t-26.5 -52.5q0 -35 27.5 -61.5t63 -26.5t63 26.5t27.5 61.5q0 33 -26.5 52.5t-64 19.5z" />
    <glyph glyph-name="uniE670" unicode="&#xe670;" horiz-adv-x="1025" 
d="M879 896h-734q-60 0 -102.5 -42.5t-42.5 -102.5v-525h97v525q0 20 14 34t34 14h734q20 0 34 -14t14 -34v-734q0 -20 -14 -34t-34 -14h-734q-20 0 -34 14t-14 34v15h550l137 138l1 341h63v97l-336 169l-336 -169v-97h63v-286h97v355l176 88l176 -88v-381l-71 -70h-122
l-32 32h114l63 63h-254l-95 -95h-291v-112q0 -60 42.5 -102.5t102.5 -42.5h734q60 0 102.5 42.5t42.5 102.5v734q0 60 -42.5 102.5t-102.5 42.5zM653 561h-88l-53 -53l-52 53h-89l110 -110v-3h-97v-33h97v-31h-97v-33h97v-94h62v94h97v33h-97v31h97v33h-97v3z" />
    <glyph glyph-name="uniE671" unicode="&#xe671;" 
d="M512 896q-139 0 -257 -68.5t-186.5 -186.5t-68.5 -257t68.5 -257t186.5 -186.5t257 -68.5t257 68.5t186.5 186.5t68.5 257t-68.5 257t-186.5 186.5t-257 68.5zM758 151q0 -8 -6 -14t-15 -6h-450q-9 0 -15 6t-6 14v61q0 9 6 15t15 6h450q9 0 15 -6t6 -15v-61zM758 356
q0 -9 -6 -15t-15 -6h-450q-9 0 -15 6t-6 15v61q0 9 6 15t15 6h450q9 0 15 -6t6 -15v-61zM758 561q0 -9 -6 -15t-15 -6h-450q-9 0 -15 6t-6 15v61q0 9 6 15t15 6h450q9 0 15 -6t6 -15v-61z" />
    <glyph glyph-name="uniE672" unicode="&#xe672;" 
d="M257 820q-41 -51 -57 -90q-2 -3 -4.5 -10t-4.5 -11q-1 -3 -6.5 -14.5t-8.5 -18.5q-7 -19 -7 -28v-564q0 -27 16 -43.5t43 -16.5h561q27 0 43.5 16.5t16.5 43.5v564q0 12 -4 21q-23 54 -31 69q-4 7 -54 82h39q9 -2 10 -2q88 -8 131 -84q4 -8 8 -17t8 -21.5t6 -18.5v-625
l-2 -8q-15 -62 -64 -100q-26 -21 -75 -33h-625q-27 8 -28 8q-78 28 -104 105q-1 3 -11 50v580q10 49 11 52q27 76 103 103q3 1 52 11h38zM519 820q33 -5 34 -5q133 -30 174 -159q22 -66 -7 -142q-32 -85 -81 -170q-11 -17 -129 -211q-61 94 -64 99q-94 149 -137 253
q-23 56 -27 92q-5 56 20 109q43 93 141 124q2 0 45 8h3l4 2h4h20zM621 592q-4 49 -33.5 80t-78.5 31.5t-80.5 -31t-31.5 -80.5t31 -80t80 -32q48 0 78.5 30.5t34.5 81.5z" />
    <glyph glyph-name="uniE673" unicode="&#xe673;" 
d="M512 305h-180q-32 -1 -48.5 25.5t-1.5 55.5q19 37 94 178q14 28 47 28h178q33 0 48 -29q81 -156 92 -176q15 -29 -0.5 -56t-50.5 -26h-178zM787 -22h-178q-35 -2 -50 25.5t-1 55.5q49 94 93 177q15 28 47 28h180q31 0 46 -27q68 -129 93 -179q12 -24 4 -46t-29 -31
q-8 -3 -26 -3h-179zM236 -22h-179q-34 -2 -49.5 25t-0.5 56q50 98 93 177q15 28 47 28h178q33 0 48 -28q67 -127 92 -176q12 -24 4.5 -47t-29.5 -32q-8 -3 -25 -3h-179zM232 479q-11 56 -13 63q-2 13 -14 15q-29 4 -63 15q57 12 62 13q13 2 15 15q6 33 15 63q12 -55 13 -64
q2 -12 14 -14q35 -7 63 -15q-56 -12 -64 -14q-10 -2 -12 -13t-14 -64h-2zM753 478q55 12 59 13q16 3 18 18q1 5 10 52q2 7 4 8q13 -62 14 -66q2 -9 11 -10q36 -8 64 -17q-54 -12 -64 -14q-9 -1 -11 -11q-1 -7 -14 -66q-2 5 -3.5 10t-3 12t-1.5 10q-5 18 -8 36q-1 7 -10 9
q-6 1 -65 14v2zM544 699q56 12 62 13q11 2 14 15q6 33 15 63q12 -60 13 -64q2 -12 13 -14q6 -1 64 -13q-5 -3 -10.5 -4.5t-12.5 -2.5t-10 -2q-19 -5 -33 -7q-9 -1 -11 -12q-8 -41 -15 -66q-12 57 -13 65q-2 11 -13 13q-8 2 -64 14z" />
    <glyph glyph-name="uniE674" unicode="&#xe674;" 
d="M1024 512v197q0 24 -17.5 41.5t-41.5 17.5h-906q-24 0 -41.5 -17.5t-17.5 -41.5v-197q53 0 90.5 -37.5t37.5 -90.5t-37.5 -90.5t-90.5 -37.5v-197q0 -24 17.5 -41.5t41.5 -17.5h906q24 0 41.5 17.5t17.5 41.5v197q-53 0 -90.5 37.5t-37.5 90.5t37.5 90.5t90.5 37.5z
M700 307q17 0 27 -9.5t10 -27.5q0 -36 -37 -36h-151v-85q0 -22 -7 -33q-8 -11 -30 -11t-31 11q-8 10 -8 33v85h-149q-37 0 -37 37q0 20 10 28q9 8 26 8h150v62h-149q-37 0 -37 37q0 20 10 29q9 8 26 8h114l-96 160q-7 14 -7 26q0 16 12 25q12 8 27 8q17 0 30 -21l109 -184
l108 184q14 22 30 22q13 0 26 -9q15 -9 15 -23q0 -12 -9 -28l-95 -160h113q17 0 27 -10t10 -27q0 -37 -37 -37h-151v-62h151z" />
    <glyph glyph-name="uniE675" unicode="&#xe675;" 
d="M663 -40h-220h-383q-34 0 -42 8.5t-13 43.5q-2 21 2 39.5t9.5 29.5t20.5 24t23.5 18.5t29.5 17.5t27 16q13 8 69.5 38t83.5 51q30 22 41 40t4.5 45t-37.5 68q-69 93 -59 185q19 175 164 217q66 19 129.5 -13t99.5 -107q69 -146 -34 -284q-3 -3 -9 -11t-9.5 -12.5
t-7.5 -11.5t-6 -13q-18 -52 13 -77q18 -15 24 -31t2 -40q-23 -148 78 -241zM829.5 340q-78.5 0 -134 -55.5t-55.5 -134.5t55.5 -134.5t134 -55.5t134 55.5t55.5 134.5t-55.5 134.5t-134 55.5zM958 135q0 -5 -3 -8t-8 -3h-92v-92q0 -4 -3 -7t-7 -3h-31q-4 0 -7 3t-3 7v92h-93
q-4 0 -7 3t-3 8v30q0 5 3 8t7 3h93v92q0 4 3 7t7 3h31q4 0 7 -3t3 -7v-92h92q5 0 8 -3t3 -8v-30z" />
    <glyph glyph-name="uniE676" unicode="&#xe676;" 
d="M258 650zM645 394q-8 2 -10.5 5t-0.5 6l1 3q1 0 1.5 1t2 4.5t2.5 7t1.5 8.5t-0.5 9.5t-3.5 10t-6.5 9.5q-7 8 -19 10t-24 0t-23 -5t-18 -5l-7 -3q-5 -2 -8.5 -2.5t-5.5 0t-3 1.5t-0.5 4t0.5 5t1 6.5t2 7.5q0 6 -1 12t-3.5 12.5t-7.5 11t-13 7t-20 1.5t-28 -6
q-18 -7 -37.5 -19.5t-33.5 -26t-25.5 -26t-18.5 -21.5l-6 -8q-17 -23 -25.5 -46t-8.5 -35v-11q3 -25 15.5 -45.5t30 -33t41 -21.5t45 -13t45.5 -5q40 -4 82.5 5.5t79 32.5t51.5 55q9 19 9 35.5t-5.5 27t-15 18.5t-18 11.5t-14.5 4.5zM482 228q-57 -2 -97.5 23t-40.5 63
t40 65.5t98 30t98 -19t40 -59.5q0 -39 -40.5 -69.5t-97.5 -33.5zM467 376q-16 -2 -28 -7.5t-19 -12.5t-12 -15.5t-7 -16.5t-2.5 -14.5t-0.5 -10.5l1 -4v-2q0 -2 1 -6.5t3 -8.5t6 -9t10 -8q35 -17 65.5 -10.5t49.5 30.5q7 9 9.5 22.5t-1 27t-12 24.5t-25 17.5t-38.5 3.5z
M447 275h-6q-3 0 -5 1t-4.5 2t-4 3t-3 3.5t-2.5 4t-1 5.5q0 6 3.5 11.5t9 9.5t12.5 4q5 1 9.5 0t7.5 -2.5t5.5 -4t3.5 -6t1 -6.5q0 -6 -3.5 -11.5t-9.5 -9t-12 -4.5h-1zM493 314q-4 -3 -8 -3t-5 4l-2 2v2v2v3l2 2q0 1 1 1l2 3q4 3 8 2.5t6 -4.5q1 -2 1 -4.5t-1.5 -5
t-3.5 -4.5zM682 425q4 0 6.5 1.5t4 4t2.5 5.5v1q7 61 -43 70q-14 2 -26 0q-4 0 -6.5 -1.5t-4.5 -4.5t-2 -6q0 -6 3.5 -9.5t9.5 -3.5q41 9 45 -27q1 -9 -2 -17q0 -5 4 -9t9 -4zM673 576q-23 5 -63 -3h-1v-1l-1 -1q-6 -1 -9.5 -6t-3.5 -11q0 -8 5 -13.5t13 -5.5h2l2 1h4
q2 1 4.5 1.5t4.5 1.5t7 1t13 -1t17 -4t18.5 -8t19 -13.5t16.5 -19.5q14 -32 5 -61v-1q0 -1 -0.5 -3t-1.5 -3.5t-1.5 -4.5t-0.5 -5q0 -5 3 -8.5t7 -4.5t9 -1q15 0 18 18q6 21 7 39.5t-2.5 33t-10.5 27t-16 21.5t-20.5 16t-22 11.5t-21.5 7.5zM512 871q99 0 189 -38.5
t155.5 -104t104 -155.5t38.5 -189t-38.5 -189t-104 -155.5t-155.5 -104t-189 -38.5t-189 38.5t-155.5 104t-104 155.5t-38.5 189t38.5 189t104 155.5t155.5 104t189 38.5zM512 892q-103 0 -197.5 -40t-162.5 -108t-108 -162.5t-40 -197.5t40 -197.5t108 -162.5t162.5 -108
t197.5 -40t197.5 40t162.5 108t108 162.5t40 197.5t-40 197.5t-108 162.5t-162.5 108t-197.5 40z" />
    <glyph glyph-name="uniE677" unicode="&#xe677;" 
d="M713 316l-1 8l-1 7l-1 4l-1 4l-2 4l-1 4l-2 4l-2 5l-3 6l-3 7l-2 5l-3 5l-3 5l-2 4l-4 6l-6 8l-1 2v1v1l1 3l1 2l1 5l1 3v3v2v2v2l-1 2l-1 4l-1 4l-1 4l-1 4l-2 2l-1 3l-2 3l-2 4l-1 1v1l-1 8l-1 5l-1 6l-1 6l-2 8l-1 4l-1 3l-1 4l-1 5l-2 3l-1 5l-4 8l-2 4l-2 4l-3 4
l-2 5l-3 4l-3 3l-4 4l-3 4l-4 4l-4 3l-2 2l-2 1l-5 4l-5 3l-5 3l-6 3l-6 3l-5 2l-6 2l-7 2l-6 2l-6 1l-6 1l-6 1l-6 1l-7 1h-6h-6h-6l-7 -1l-6 -1h-6l-6 -1l-6 -1l-5 -2l-6 -2l-5 -2l-5 -1l-6 -3l-5 -2l-4 -2l-4 -3l-5 -3l-4 -4l-3 -3l-6 -5l-4 -4l-4 -5l-4 -5l-4 -4l-3 -5
l-3 -5l-2 -2l-1 -2l-3 -5l-3 -4l-2 -4l-1 -5l-2 -4l-2 -4l-1 -4l-1 -3l-2 -7l-2 -6v-6l-1 -5v-3v-3v-3l-1 -1l-1 -2l-1 -2l-1 -1l-1 -4l-1 -4l-1 -3v-3v-2l-2 -4l-2 -3l-1 -4l-1 -3l-1 -3l-1 -3v-2v-3v-2v-2l1 -3l1 -3l-2 -1l-3 -3l-6 -4l-3 -3l-3 -3l-2 -2l-2 -2l-4 -4
l-3 -4l-3 -4l-4 -5l-3 -5l-3 -5l-3 -4l-2 -5l-2 -5l-2 -5l-2 -4l-1 -5l-1 -5l-2 -4v-4l-1 -5l-1 -4v-7v-8v-3v-3l1 -6l1 -2v-3l1 -2l1 -2l1 -3h1l1 -1v-1h1l3 1h3l3 1l3 2l2 2l3 2l2 3l2 2l2 3l2 2l2 2l1 2l2 4l1 2v1v1l1 1h1h1v0l2 -6l1 -4l2 -4l1 -4l2 -4l2 -4l2 -3l1 -3
l3 -3l1 -3l4 -5l4 -5l4 -3l3 -4l3 -2l5 -4l2 -1v-1v-1h-1h-4l-3 -1h-2l-3 -1l-3 -1h-2l-2 -2l-2 -1h-2l-1 -1l-2 -1l-1 -2l-2 -2l-1 -1l-1 -1l-1 -3l-1 -2l-1 -2v-2v-2v-1v-2v-2l-1 -2v-1l1 -2v-1l1 -3l1 -2l1 -1l1 -2l1 -1l1 -1l1 -1l3 -3l3 -2l4 -1l4 -2l4 -2l4 -1l5 -1
l5 -1l5 -1l5 -1h5l10 -1l11 -1h10h4h4l5 1h4h4l3 1l6 1l4 1l4 1l7 3l4 1l3 2l5 3l4 2l4 2l2 2h4h3l6 -1h3h3h1l2 -1l3 -1l4 -1l6 -2l6 -2l6 -2l7 -1l6 -2l7 -1l6 -1l6 -1h6l7 -1h6h5h6l6 1h5l6 1l4 1l5 1l5 2h2l2 1l4 1l4 2l3 2l3 2l3 2l1 1l2 2l1 2l2 2l1 2v1l1 1v2v1l1 1
l-1 3v1l-1 2v2l-2 2l-1 2l-1 2l-2 1l-4 4l-4 3l-4 2l-5 3l-10 5l-2 2h-1l-1 1l5 5l3 2l1 2l4 5l3 5l3 5l2 4l4 9l2 7l2 5l1 2l1 1l1 1h1l2 -5l3 -5l1 -3l2 -3l2 -3l2 -3l2 -2l1 -1l1 -1h1l1 -1l2 -1l1 -1h1h1l1 1h1l2 1l1 1l1 2l2 1l1 1l1 2l1 2l1 2v2l2 5l1 5l1 6v4v3v3v3z
M512 871q99 0 189 -38.5t155.5 -104t104 -155.5t38.5 -189t-38.5 -189t-104 -155.5t-155.5 -104t-189 -38.5t-189 38.5t-155.5 104t-104 155.5t-38.5 189t38.5 189t104 155.5t155.5 104t189 38.5zM512 892q-103 0 -197.5 -40t-162.5 -108t-108 -162.5t-40 -197.5t40 -197.5
t108 -162.5t162.5 -108t197.5 -40t197.5 40t162.5 108t108 162.5t40 197.5t-40 197.5t-108 162.5t-162.5 108t-197.5 40z" />
  </font>
</defs>
</svg>
